<?xml version="1.0" standalone="no"?>
<!DOCTYPE svg PUBLIC "-//W3C//DTD SVG 20010904//EN"
 "http://www.w3.org/TR/2001/REC-SVG-20010904/DTD/svg10.dtd">
<svg version="1.0" xmlns="http://www.w3.org/2000/svg"
 width="1024.000000pt" height="1024.000000pt" viewBox="0 0 1024.000000 1024.000000"
 preserveAspectRatio="xMidYMid meet">

<g transform="translate(0.000000,1024.000000) scale(0.100000,-0.100000)"
fill="#000000" stroke="none">
<path d="M4765 9863 c-3 -26 -7 -54 -8 -62 -1 -7 -24 -22 -52 -32 l-49 -19
-36 35 c-20 19 -42 35 -49 35 -18 0 -101 -68 -101 -82 0 -6 11 -26 25 -44 14
-18 25 -36 25 -39 0 -4 -16 -29 -35 -55 -20 -27 -35 -59 -35 -75 0 -15 -5 -45
-11 -66 -11 -36 -13 -38 -70 -44 l-59 -7 0 -68 0 -67 31 -7 c17 -3 47 -6 65
-6 31 0 35 -4 68 -70 l35 -70 -24 -37 -25 -36 22 -25 c13 -13 40 -38 61 -54
l38 -31 39 38 c41 40 39 40 120 10 52 -19 56 -24 65 -81 3 -24 10 -46 16 -49
5 -4 34 -3 64 0 l54 7 7 54 c6 51 9 56 46 74 l41 19 44 -39 c51 -44 57 -44
112 14 l35 36 -26 47 -26 47 21 38 c22 37 23 37 92 40 l69 3 13 64 c15 74 14
76 -53 86 -46 7 -54 19 -54 90 0 39 2 41 54 63 l55 24 -22 59 c-11 32 -26 59
-32 59 -5 0 -34 -8 -62 -19 l-52 -19 -23 25 -22 24 23 44 c27 51 24 58 -43
106 l-38 28 -48 -40 -47 -40 -34 17 c-19 10 -41 20 -49 24 -8 4 -20 31 -25 61
l-11 54 -56 3 -57 3 -6 -48z m147 -263 c21 -6 56 -25 79 -43 197 -150 37 -472
-199 -402 -103 31 -172 121 -172 225 0 155 142 261 292 220z"/>
<path d="M3464 9786 c-9 -24 4 -48 23 -44 12 2 18 12 18 28 0 29 -32 41 -41
16z"/>
<path d="M6750 9780 c-18 -12 -2 -12 25 0 13 6 15 9 5 9 -8 0 -22 -4 -30 -9z"/>
<path d="M7058 9783 c145 -2 379 -2 520 0 141 1 23 2 -263 2 -286 0 -402 -1
-257 -2z"/>
<path d="M2016 9738 c-11 -15 -16 -45 -16 -90 l0 -68 635 0 635 0 0 74 c0 54
-4 79 -16 90 -14 14 -84 16 -619 16 l-604 0 -15 -22z m132 -75 c-3 -29 -32
-43 -50 -25 -18 18 1 52 28 52 22 0 25 -4 22 -27z m111 13 c15 -18 3 -46 -19
-46 -20 0 -32 23 -24 45 8 19 28 19 43 1z"/>
<path d="M4060 9740 c0 -14 5 -18 17 -13 11 4 13 8 5 11 -7 2 -10 8 -6 13 3 5
0 9 -5 9 -6 0 -11 -9 -11 -20z"/>
<path d="M3650 9695 c-55 -17 -122 -72 -144 -119 -21 -44 -21 -155 0 -225 9
-33 30 -69 55 -96 l39 -42 0 -361 0 -361 105 -3 105 -3 0 173 c0 149 -2 172
-16 172 -8 0 -13 4 -10 8 3 4 -37 7 -87 5 -66 -2 -84 0 -64 7 16 5 62 10 104
11 77 3 93 10 74 33 -8 9 -29 12 -65 10 -30 -2 -72 0 -93 5 -31 7 -21 9 60 10
l97 1 0 29 c0 16 3 43 6 60 l7 31 -98 0 c-54 0 -95 3 -91 8 4 4 47 7 94 7 80
0 87 2 87 20 0 18 -8 21 -80 25 l-80 5 77 5 c42 3 80 8 83 12 4 4 4 16 0 27
-5 18 -12 20 -68 15 -34 -3 -75 -1 -92 5 -25 8 -19 9 42 10 75 1 123 13 123
31 0 6 9 21 21 33 32 34 70 97 64 107 -3 4 0 10 6 12 7 2 10 11 7 19 -4 9 -9
4 -18 -16 -29 -70 -36 -81 -63 -106 -26 -25 -35 -27 -121 -28 -76 -1 -95 1
-100 14 -3 10 1 15 12 16 14 0 14 2 -3 9 -13 6 -15 9 -5 9 13 1 13 3 1 10 -18
11 -55 -5 -46 -20 4 -5 11 -7 16 -4 5 3 6 -1 3 -10 -6 -13 -10 -11 -25 12 -11
15 -19 36 -19 46 0 10 -4 16 -9 13 -16 -11 -18 19 -2 30 12 10 19 8 33 -9 10
-11 18 -27 18 -36 0 -14 2 -14 10 -1 5 8 10 10 10 4 0 -20 58 -37 111 -32 97
10 156 88 145 196 -4 49 -3 52 12 40 15 -11 15 -10 0 8 -10 11 -18 26 -18 33
0 8 -6 11 -15 7 -13 -5 -14 -2 -4 17 12 21 11 21 -6 7 -11 -9 -16 -10 -11 -2
4 7 2 12 -7 12 -8 0 -28 7 -43 15 -40 20 -102 19 -146 -4 -36 -18 -38 -18 -54
0 -10 11 -14 22 -11 26 4 3 7 1 7 -5 0 -7 5 -12 11 -12 6 0 8 7 5 16 -3 8 -2
13 3 10 10 -6 74 18 67 25 -2 2 28 2 67 1 65 -3 74 -7 98 -33 14 -16 29 -26
32 -22 7 6 10 -9 8 -32 0 -5 9 -21 20 -35 20 -24 20 -24 9 -2 -14 28 -8 39 10
17 7 -8 16 -50 21 -92 l8 -78 -3 75 c-2 61 -8 83 -30 118 -31 50 -94 98 -139
107 -18 4 -39 8 -47 10 -8 2 -35 -3 -60 -10z m-71 -119 c-3 -3 -11 5 -18 17
-13 21 -12 21 5 5 10 -10 16 -20 13 -22z m-36 -125 c-1 -42 -2 -79 -2 -83 -1
-5 -7 -8 -15 -8 -14 0 -26 48 -26 107 0 43 9 62 28 60 14 -1 17 -12 15 -76z
m257 -471 c0 -6 -34 -10 -82 -9 -57 1 -75 4 -58 9 37 12 140 12 140 0z"/>
<path d="M4066 9667 c3 -10 9 -15 12 -12 3 3 0 11 -7 18 -10 9 -11 8 -5 -6z"/>
<path d="M8241 9671 c-8 -5 -11 -16 -6 -30 3 -12 11 -19 16 -15 6 3 10 0 8 -7
-1 -8 -1 -21 0 -29 1 -13 2 -13 11 0 8 12 10 11 10 -6 0 -24 -16 -33 -63 -35
l-32 -1 30 -7 c17 -4 38 -4 47 1 22 11 28 10 28 -2 0 -5 -7 -10 -16 -10 -8 0
-12 -5 -8 -11 5 -8 1 -8 -14 0 -26 14 -52 14 -52 1 0 -5 7 -10 16 -10 9 0 12
-5 8 -12 -5 -8 -2 -9 9 -5 17 6 18 4 22 -43 1 -14 5 -36 10 -49 5 -16 4 -21
-3 -17 -11 7 -38 -32 -29 -41 8 -7 47 16 47 28 0 12 40 48 55 49 5 0 24 -16
42 -36 21 -25 37 -34 48 -30 18 7 13 43 -9 61 -7 6 -12 20 -12 32 0 23 29 38
86 45 19 2 25 9 25 28 0 23 -4 25 -51 28 -42 2 -53 7 -57 22 -3 11 -1 20 5 20
5 0 7 4 4 9 -8 13 4 42 15 35 5 -3 9 4 9 15 0 35 -24 29 -69 -17 -40 -40 -45
-43 -52 -26 -7 19 -53 74 -60 74 -2 0 -10 -4 -18 -9z m42 -227 c-7 -3 -9 -13
-6 -22 4 -14 3 -14 -5 -2 -12 16 -7 30 11 29 9 0 9 -2 0 -5z"/>
<path d="M1745 9634 c-10 -11 -15 -29 -13 -53 7 -82 117 -72 118 11 0 15 -7
34 -16 42 -20 21 -68 20 -89 0z"/>
<path d="M7218 9543 c56 -2 148 -2 205 0 56 1 10 3 -103 3 -113 0 -159 -2
-102 -3z"/>
<path d="M7658 9543 c7 -3 16 -2 19 1 4 3 -2 6 -13 5 -11 0 -14 -3 -6 -6z"/>
<path d="M2000 8985 l0 -555 -200 0 -199 0 -35 45 c-38 51 -64 73 -116 101
-32 17 -64 19 -338 21 -183 2 -319 -1 -341 -7 -59 -16 -120 -66 -144 -118 -20
-43 -22 -66 -25 -262 -3 -240 1 -261 66 -301 l32 -21 0 239 c0 138 5 254 11
277 22 79 139 160 177 122 19 -18 9 -33 -28 -41 -42 -9 -86 -54 -99 -101 -7
-24 -11 -153 -11 -342 0 -336 3 -356 62 -392 32 -19 49 -20 628 -20 577 0 596
1 628 20 18 11 37 32 42 46 6 14 10 135 10 270 l0 244 88 2 c48 1 295 2 549 2
l461 1 26 24 26 24 0 639 0 638 -40 0 -39 0 -3 -522 c-2 -288 -7 -529 -11
-535 -6 -10 -126 -13 -543 -13 l-534 0 -2 128 c-1 70 0 193 1 273 2 80 0 263
-4 407 l-7 262 -44 0 -44 0 0 -555z m-995 -465 c13 -40 -38 -68 -64 -36 -9 11
-10 20 -1 35 14 28 56 28 65 1z m1700 -125 c31 -30 32 -65 3 -92 -44 -40 -92
-32 -119 18 -21 40 21 96 74 98 10 1 29 -10 42 -24z m-795 -107 l0 -23 -477 0
c-484 0 -509 2 -488 35 4 6 179 10 486 10 l479 0 0 -22z m3 -118 c-5 -20 -14
-20 -488 -20 -511 0 -488 -2 -476 38 1 1 219 2 485 2 479 0 484 0 479 -20z
m-560 -109 c3 -11 2 -22 -1 -25 -3 -3 -95 -6 -204 -6 -189 0 -198 1 -198 19 0
11 8 22 18 24 9 3 99 5 198 6 172 1 182 0 187 -18z m555 -3 l-3 -23 -235 0
-235 0 -3 23 -3 22 241 0 241 0 -3 -22z m-148 -128 c0 -15 -7 -20 -27 -21 -16
0 -150 0 -300 1 -162 1 -274 -3 -277 -8 -3 -6 -3 -23 0 -38 l6 -29 166 0 c166
0 167 0 170 -23 l3 -22 -196 2 -197 3 0 73 c1 39 1 74 1 77 1 3 147 5 326 5
318 0 325 0 325 -20z m140 -145 l0 -26 -127 3 c-124 3 -128 4 -131 26 -3 22
-3 22 127 22 l131 0 0 -25z"/>
<path d="M8687 9513 c-4 -3 -7 -15 -7 -25 0 -22 23 -24 41 -2 10 13 10 17 -2
25 -17 11 -24 11 -32 2z"/>
<path d="M8158 9503 c6 -2 18 -2 25 0 6 3 1 5 -13 5 -14 0 -19 -2 -12 -5z"/>
<path d="M1423 9413 c-18 -10 -46 -36 -63 -57 -29 -38 -30 -41 -26 -127 5 -94
9 -109 31 -109 14 0 154 123 169 149 9 14 8 14 -9 1 -17 -14 -18 -14 -6 8 7
12 16 20 20 17 12 -7 21 20 21 61 0 67 -67 95 -137 57z m124 -70 c-3 -10 -5
-2 -5 17 0 19 2 27 5 18 2 -10 2 -26 0 -35z m-147 -183 c0 -5 -5 -10 -11 -10
-5 0 -7 5 -4 10 3 6 8 10 11 10 2 0 4 -4 4 -10z"/>
<path d="M7093 9383 c20 -2 54 -2 75 0 20 2 3 4 -38 4 -41 0 -58 -2 -37 -4z"/>
<path d="M7468 9383 c17 -2 47 -2 65 0 17 2 3 4 -33 4 -36 0 -50 -2 -32 -4z"/>
<path d="M3553 9337 c4 -10 7 -25 7 -33 0 -8 5 -14 10 -14 16 0 11 36 -7 51
-15 12 -16 12 -10 -4z"/>
<path d="M3785 9280 c-3 -6 1 -7 9 -4 18 7 21 14 7 14 -6 0 -13 -4 -16 -10z"/>
<path d="M8224 9241 c-49 -22 -88 -70 -103 -126 -7 -26 -11 -208 -11 -536 l0
-495 25 -50 c14 -28 40 -59 62 -74 l37 -25 535 -3 c363 -2 548 0 573 8 45 13
93 52 115 94 16 28 17 84 17 556 l0 525 -22 43 c-14 27 -40 54 -69 73 l-47 29
-535 0 c-502 0 -539 -2 -577 -19z m142 -103 c6 -20 -15 -48 -38 -48 -11 0 -21
47 -13 59 11 19 43 12 51 -11z m123 4 c12 -22 -3 -42 -31 -42 -21 0 -33 22
-24 45 8 21 43 19 55 -3z m373 -173 c3 -50 4 -51 46 -65 41 -14 44 -14 76 11
43 33 56 32 89 -9 33 -43 33 -47 1 -86 l-26 -31 20 -47 c20 -46 21 -47 74 -52
l53 -5 3 -62 3 -62 -57 -3 -56 -3 -19 -47 -18 -46 29 -33 28 -33 -30 -38 c-40
-51 -42 -52 -76 -23 -35 30 -43 30 -100 8 -43 -16 -43 -16 -37 -58 9 -54 -7
-67 -77 -63 l-53 3 -3 55 c-3 55 -3 56 -42 68 -53 16 -56 16 -94 -13 l-32 -25
-39 40 -38 39 19 27 c10 15 23 32 28 39 5 7 2 29 -9 58 l-17 46 -57 3 -56 3
-3 39 c-2 22 -1 50 2 63 6 20 12 23 59 23 l52 0 21 55 21 54 -28 27 c-16 15
-29 33 -29 39 0 6 16 26 35 45 l34 33 40 -26 c38 -25 43 -26 86 -15 l45 12 0
53 0 53 64 0 65 0 3 -51z"/>
<path d="M8708 8775 c-99 -67 -111 -214 -22 -284 86 -68 206 -43 261 54 27 47
29 91 8 143 -32 74 -86 112 -162 112 -35 0 -58 -7 -85 -25z"/>
<path d="M4014 9195 c-15 -23 -15 -27 0 -50 10 -15 26 -25 41 -25 15 0 31 10
41 25 15 23 15 27 0 50 -10 15 -26 25 -41 25 -15 0 -31 -10 -41 -25z"/>
<path d="M1639 9168 c-26 -18 -84 -69 -130 -112 -46 -44 -111 -102 -143 -129
-95 -78 -106 -94 -106 -150 0 -60 70 -109 118 -83 12 6 73 62 136 124 72 69
123 112 136 112 45 0 120 52 146 102 16 31 19 88 4 88 -5 0 -10 5 -10 11 0 5
5 7 10 4 19 -12 9 10 -15 33 -40 39 -91 38 -146 0z"/>
<path d="M2390 9183 c7 -16 7 -23 0 -23 -5 0 -10 -9 -10 -21 0 -11 -5 -17 -10
-14 -7 4 -6 13 1 26 6 12 9 23 6 25 -2 2 -12 -15 -23 -38 -14 -32 -19 -65 -19
-133 1 -101 22 -160 78 -215 25 -24 33 -27 46 -17 12 10 14 9 9 -4 -5 -11 4
-21 28 -33 39 -18 64 -21 64 -6 0 6 3 9 8 9 4 -1 14 -1 22 1 11 1 9 4 -5 10
-18 8 -18 9 -2 9 10 1 16 5 12 11 -3 5 -12 7 -20 4 -10 -4 -12 0 -8 16 4 16 8
18 14 8 5 -7 9 -8 9 -2 0 18 -77 97 -88 91 -5 -4 -16 1 -23 11 -13 15 -12 16
4 3 30 -24 18 4 -16 37 -26 26 -35 30 -46 20 -10 -11 -11 -7 -5 17 4 17 8 38
8 47 0 12 4 14 12 7 9 -7 14 -4 19 10 3 10 13 22 21 25 9 3 12 11 8 17 -4 7
-3 9 3 6 14 -9 37 19 27 34 -4 7 -3 9 3 6 6 -4 18 2 28 13 20 22 14 26 -14 10
-14 -7 -23 -5 -36 10 -17 19 -20 19 -36 4 -25 -23 -45 -8 -23 17 9 10 14 19 9
19 -4 0 -14 -8 -21 -17 -12 -17 -14 -17 -29 2 -16 20 -16 20 -5 -2z m145 -343
c3 -5 1 -10 -4 -10 -6 0 -11 5 -11 10 0 6 2 10 4 10 3 0 8 -4 11 -10z m-10
-90 c3 -5 2 -10 -4 -10 -5 0 -13 5 -16 10 -3 6 -2 10 4 10 5 0 13 -4 16 -10z"/>
<path d="M1110 9118 c0 -4 7 -8 15 -8 8 0 15 4 15 8 0 5 -7 9 -15 9 -8 0 -15
-4 -15 -9z"/>
<path d="M1086 9083 c-6 -14 -5 -15 5 -6 7 7 10 15 7 18 -3 3 -9 -2 -12 -12z"/>
<path d="M2536 9043 c-6 -14 -5 -15 5 -6 7 7 10 15 7 18 -3 3 -9 -2 -12 -12z"/>
<path d="M1187 9039 c7 -7 15 -10 18 -7 3 3 -2 9 -12 12 -14 6 -15 5 -6 -5z"/>
<path d="M4321 9000 c-18 -33 -28 -40 -52 -40 -23 0 -34 7 -50 35 -24 41 -35
42 -90 14 -38 -19 -41 -23 -35 -53 5 -28 1 -39 -28 -70 -31 -34 -37 -37 -71
-30 -33 6 -37 5 -32 -10 4 -9 3 -15 -2 -12 -9 6 -31 -45 -31 -70 0 -9 11 -14
30 -14 19 0 30 -5 30 -14 0 -7 3 -27 6 -45 5 -26 1 -35 -25 -60 -25 -24 -30
-35 -25 -55 3 -14 10 -23 15 -20 5 3 7 -1 4 -8 -3 -7 -1 -19 4 -26 7 -12 14
-11 40 3 l33 16 35 -36 c30 -31 34 -40 29 -70 -6 -30 -4 -36 21 -48 62 -32 71
-31 90 8 16 34 19 36 63 33 40 -3 47 -7 59 -35 18 -40 31 -41 87 -8 41 24 42
26 32 55 -19 55 24 94 97 88 26 -3 31 1 41 32 8 24 8 37 1 41 -5 4 -1 9 9 11
16 3 14 6 -11 19 -27 13 -30 20 -33 66 -3 49 -1 53 27 68 35 18 40 47 16 82
-13 19 -20 21 -41 13 -40 -16 -52 -12 -71 20 -9 16 -28 33 -42 38 -23 8 -25
13 -22 54 2 43 1 46 -30 57 -48 17 -53 14 -78 -29z m1 -150 c51 -15 94 -63
108 -121 11 -45 10 -53 -11 -96 -30 -59 -64 -84 -123 -90 -65 -8 -120 18 -152
72 -50 85 -22 178 66 223 50 25 60 26 112 12z m278 -34 c0 -3 -4 -8 -10 -11
-5 -3 -10 -1 -10 4 0 6 5 11 10 11 6 0 10 -2 10 -4z m7 -32 c-3 -3 -12 -4 -19
-1 -8 3 -5 6 6 6 11 1 17 -2 13 -5z"/>
<path d="M2499 9003 c-13 -16 -12 -17 4 -4 9 7 17 15 17 17 0 8 -8 3 -21 -13z"/>
<path d="M5427 8974 c-4 -4 -7 -16 -7 -26 0 -14 6 -19 23 -16 14 2 22 10 22
23 0 20 -25 32 -38 19z m23 -25 c0 -5 -4 -9 -10 -9 -5 0 -10 7 -10 16 0 8 5
12 10 9 6 -3 10 -10 10 -16z"/>
<path d="M6422 8968 c-18 -18 -14 -36 8 -43 30 -9 52 12 39 36 -11 22 -30 24
-47 7z"/>
<path d="M6686 8861 c-4 -5 3 -7 14 -4 23 6 26 13 6 13 -8 0 -17 -4 -20 -9z"/>
<path d="M7867 8848 c-9 -7 -18 -25 -21 -39 -4 -24 -2 -25 36 -22 22 2 48 9
59 16 18 13 18 14 -2 35 -22 25 -47 28 -72 10z m63 -14 c0 -3 -7 -12 -15 -20
-16 -17 -18 -14 -9 10 6 15 24 23 24 10z"/>
<path d="M5298 8791 l-33 -29 -3 -247 -3 -248 45 -42 c31 -29 46 -51 46 -67 0
-35 11 -88 19 -88 3 0 20 14 38 30 38 36 48 38 39 8 -16 -53 -16 -60 0 -54 9
3 19 6 22 7 4 0 -2 5 -13 10 -16 7 -13 8 11 4 21 -4 60 6 130 34 55 22 113 43
127 46 15 4 27 11 27 17 0 5 3 7 8 5 4 -3 27 4 52 14 32 14 36 18 15 14 -16
-4 -27 -3 -23 1 4 3 146 7 315 7 169 -1 288 3 263 7 -47 7 -48 7 42 14 14 1
24 -2 22 -6 -6 -10 8 -10 22 0 5 4 18 18 27 32 15 21 17 54 17 235 0 200 -10
292 -30 280 -6 -3 -7 0 -4 8 13 34 -36 37 -596 37 l-550 0 -32 -29z m219 3
c-3 -3 -12 -4 -19 -1 -8 3 -5 6 6 6 11 1 17 -2 13 -5z m-186 -121 c-12 -20
-14 -14 -5 12 4 9 9 14 11 11 3 -2 0 -13 -6 -23z m1149 8 c10 -2 7 -286 -4
-293 -7 -4 -6 -15 3 -31 7 -13 11 -33 9 -43 -3 -18 -22 -19 -448 -22 -245 -1
-455 0 -467 3 -38 9 -29 42 12 49 20 4 208 7 418 8 216 1 367 4 347 9 -27 6
-22 7 24 4 54 -4 68 3 28 13 -9 3 -207 7 -440 9 -260 3 -420 8 -416 14 3 5 9
7 14 4 4 -3 10 4 13 15 6 23 5 23 283 20 114 -1 174 2 179 9 4 8 -25 11 -93
11 -54 0 -208 3 -341 7 l-242 6 3 24 3 25 450 -1 c248 0 444 3 436 6 -11 5
-11 7 0 14 9 5 -10 9 -49 9 -40 0 -61 -4 -57 -10 3 -6 -5 -10 -19 -10 -13 0
-26 4 -28 9 -4 12 -98 21 -98 9 0 -5 -8 -7 -17 -4 -35 10 -309 16 -293 6 11
-7 -1 -9 -40 -9 -50 2 -52 2 -20 9 29 6 24 8 -32 9 -75 1 -98 7 -98 26 0 18
146 26 405 22 128 -1 200 2 200 8 0 6 -11 10 -25 10 -14 0 -29 3 -35 6 -5 4
-164 5 -352 4 -328 -3 -343 -2 -348 16 -4 10 -4 22 -2 26 4 6 1096 9 1137 4z
m-812 -228 c-10 -2 -26 -2 -35 0 -10 3 -2 5 17 5 19 0 27 -2 18 -5z m605 -90
c-7 -2 -21 -2 -30 0 -10 3 -4 5 12 5 17 0 24 -2 18 -5z m-365 -100 c-10 -2
-26 -2 -35 0 -10 3 -2 5 17 5 19 0 27 -2 18 -5z m5 -20 c-7 -2 -19 -2 -25 0
-7 3 -2 5 12 5 14 0 19 -2 13 -5z m310 0 c-13 -2 -33 -2 -45 0 -13 2 -3 4 22
4 25 0 35 -2 23 -4z m-786 -9 c-3 -3 -12 -4 -19 -1 -8 3 -5 6 6 6 11 1 17 -2
13 -5z m670 -10 c-3 -3 -12 -4 -19 -1 -8 3 -5 6 6 6 11 1 17 -2 13 -5z m126
-1 c-7 -2 -19 -2 -25 0 -7 3 -2 5 12 5 14 0 19 -2 13 -5z m80 0 c-7 -2 -21 -2
-30 0 -10 3 -4 5 12 5 17 0 24 -2 18 -5z"/>
<path d="M6155 8625 l-30 -13 45 -7 c25 -4 82 -4 125 -1 44 2 95 5 114 5 29 1
32 3 21 16 -16 20 -230 20 -275 0z m153 -2 c-10 -2 -26 -2 -35 0 -10 3 -2 5
17 5 19 0 27 -2 18 -5z"/>
<path d="M6325 8550 c-27 -4 -45 -8 -40 -9 6 -1 3 -6 -5 -12 -11 -8 -5 -9 25
-5 22 3 64 6 93 6 36 0 52 4 52 13 0 15 -49 18 -125 7z"/>
<path d="M6187 8463 c-34 -9 -5 -23 46 -22 29 1 42 4 30 6 -13 2 -23 9 -23 14
0 9 -21 10 -53 2z"/>
<path d="M6441 8354 c0 -11 3 -14 6 -6 3 7 2 16 -1 19 -3 4 -6 -2 -5 -13z"/>
<path d="M778 8793 c6 -2 18 -2 25 0 6 3 1 5 -13 5 -14 0 -19 -2 -12 -5z"/>
<path d="M7935 8788 c-4 -10 -14 -14 -26 -11 -12 3 -19 0 -19 -8 0 -11 -2 -11
-10 1 -5 8 -12 11 -17 7 -8 -9 15 -27 35 -27 6 0 12 5 12 11 0 5 4 8 9 5 11
-7 36 22 28 31 -4 3 -9 -1 -12 -9z"/>
<path d="M2611 8764 c0 -11 3 -14 6 -6 3 7 2 16 -1 19 -3 4 -6 -2 -5 -13z"/>
<path d="M1817 8739 c-9 -6 -17 -15 -17 -20 0 -6 5 -7 10 -4 6 3 10 2 10 -4 0
-5 -5 -11 -12 -13 -19 -7 1 -28 27 -28 14 0 29 8 35 19 15 30 12 38 -6 13 -20
-29 -44 -29 -41 1 1 12 6 25 12 29 16 11 1 17 -18 7z"/>
<path d="M2270 8660 c-23 -23 -24 -33 -10 -61 12 -22 59 -26 78 -7 18 18 15
53 -6 71 -24 22 -38 21 -62 -3z"/>
<path d="M3400 8619 c0 -5 5 -7 10 -4 6 3 10 8 10 11 0 2 -4 4 -10 4 -5 0 -10
-5 -10 -11z"/>
<path d="M3380 8595 c0 -3 9 -15 19 -27 20 -20 20 -21 -2 -50 -18 -24 -19 -32
-9 -46 23 -32 24 -43 8 -61 -22 -24 -20 -44 4 -61 16 -11 19 -22 14 -42 -7
-33 1 -36 16 -8 8 16 7 26 -5 42 -20 30 -19 51 5 73 l20 18 -20 22 c-25 27
-25 43 1 71 l20 22 -26 26 c-24 24 -45 34 -45 21z"/>
<path d="M9710 8596 c0 -2 7 -7 16 -10 8 -3 12 -2 9 4 -6 10 -25 14 -25 6z"/>
<path d="M3610 8411 c0 -5 12 -23 26 -40 36 -43 89 -43 139 0 19 17 35 35 35
40 0 5 -45 9 -100 9 -55 0 -100 -4 -100 -9z"/>
<path d="M3145 8120 c-82 -3 -155 -8 -161 -12 -17 -11 -24 -60 -17 -117 l6
-51 738 0 738 0 -2 70 c-3 118 50 108 -597 112 -305 2 -622 1 -705 -2z m13
-84 c5 -23 -23 -47 -44 -39 -30 11 -7 67 26 61 8 -2 16 -12 18 -22z m116 8
c18 -18 6 -54 -19 -54 -21 0 -35 31 -24 52 12 22 23 23 43 2z m131 -5 c5 -14
1 -27 -9 -37 -15 -15 -17 -15 -32 0 -20 20 -10 58 16 58 10 0 22 -10 25 -21z"/>
<path d="M6362 8078 c-7 -7 -12 -21 -12 -33 0 -28 19 -45 50 -45 31 0 50 17
50 45 0 28 -19 45 -50 45 -14 0 -31 -5 -38 -12z"/>
<path d="M2511 7979 c-55 -11 -67 -21 -76 -65 -9 -52 14 -74 77 -74 l48 0 0
75 c0 41 -1 75 -2 74 -2 -1 -23 -5 -47 -10z m-54 -101 c-3 -7 -5 -2 -5 12 0
14 2 19 5 13 2 -7 2 -19 0 -25z m48 12 c3 -5 1 -10 -4 -10 -6 0 -11 5 -11 10
0 6 2 10 4 10 3 0 8 -4 11 -10z"/>
<path d="M2612 7951 c2 -22 0 -37 -4 -35 -5 3 -8 -13 -8 -35 l0 -40 47 1 c51
1 72 17 73 55 0 52 -40 93 -92 93 -17 0 -20 -5 -16 -39z m49 11 c-7 -2 -18 1
-23 6 -8 8 -4 9 13 5 13 -4 18 -8 10 -11z m16 -64 c-3 -8 -6 -5 -6 6 -1 11 2
17 5 13 3 -3 4 -12 1 -19z m13 -38 c0 -5 -4 -10 -10 -10 -5 0 -10 5 -10 10 0
6 5 10 10 10 6 0 10 -4 10 -10z"/>
<path d="M7626 7904 c-26 -9 -46 -17 -43 -20 2 -2 17 0 33 7 16 6 65 11 109
11 55 0 72 2 55 8 -39 13 -100 10 -154 -6z"/>
<path d="M2970 7381 l0 -520 26 -20 c26 -21 34 -21 706 -21 l680 0 29 29 29
29 0 511 0 511 -57 0 c-32 0 -65 -5 -73 -10 -10 -6 -11 -10 -2 -10 9 0 12
-102 12 -474 0 -416 -2 -475 -15 -480 -9 -3 -281 -6 -606 -6 -436 -1 -595 2
-605 11 -12 10 -14 91 -14 490 l0 479 -55 0 -55 0 0 -519z"/>
<path d="M7545 7870 c-3 -6 1 -7 9 -4 18 7 21 14 7 14 -6 0 -13 -4 -16 -10z"/>
<path d="M7930 7856 c0 -2 8 -10 18 -17 15 -13 16 -12 3 4 -13 16 -21 21 -21
13z"/>
<path d="M9209 7856 c-2 -3 -18 -7 -34 -10 -37 -7 -68 -43 -62 -73 2 -12 0
-20 -5 -17 -6 4 -8 -68 -6 -185 l3 -191 28 -27 27 -28 383 -3 c250 -2 392 0
410 7 15 6 32 21 37 33 5 13 9 16 9 8 1 -10 6 -7 17 8 13 19 15 50 12 188 -2
125 -6 167 -17 173 -10 7 -11 13 -2 30 9 15 9 26 1 39 -9 14 -10 13 -4 -8 6
-22 5 -23 -9 -12 -8 7 -18 23 -21 36 -5 19 -11 22 -32 18 -15 -3 -24 -1 -21 4
5 9 -34 9 -300 1 -60 -2 -103 1 -103 6 0 10 -225 2 -242 -9 -7 -4 -8 -2 -4 4
5 8 -4 12 -27 12 -18 0 -36 -2 -38 -4z m471 -66 c0 -5 -18 -10 -40 -10 -22 0
-40 5 -40 10 0 6 18 10 40 10 22 0 40 -4 40 -10z m245 -40 c-3 -5 -11 -10 -16
-10 -6 0 -7 5 -4 10 3 6 11 10 16 10 6 0 7 -4 4 -10z m70 -18 c0 -18 -20 -15
-23 4 -3 10 1 15 10 12 7 -3 13 -10 13 -16z m-187 -32 c15 0 33 -4 40 -9 21
-13 10 -44 -18 -51 -27 -7 -516 -2 -537 5 -18 6 -16 42 3 49 9 3 119 6 245 6
176 0 229 3 230 13 0 10 2 10 6 0 2 -7 17 -13 31 -13z m-691 -12 c-3 -8 -6 -5
-6 6 -1 11 2 17 5 13 3 -3 4 -12 1 -19z m878 2 c3 -5 -1 -10 -9 -10 -9 0 -16
5 -16 10 0 6 4 10 9 10 6 0 13 -4 16 -10z m-410 -80 c-19 -8 -19 -9 3 -9 15
-1 21 -5 16 -13 -7 -11 49 -8 171 8 30 4 36 3 25 -5 -12 -9 -9 -11 15 -12 17
0 24 -3 18 -6 -19 -7 -16 -20 7 -26 22 -6 28 -41 9 -53 -13 -8 -547 -7 -560 2
-19 11 -9 44 14 45 12 1 27 2 32 4 6 1 50 3 99 3 103 2 112 11 13 13 -37 1
-70 6 -73 10 -4 8 78 13 161 11 17 -1 17 0 3 4 -10 3 -18 12 -18 20 0 10 12
14 43 13 32 0 37 -2 22 -9z m-228 -46 c-3 -3 -12 -4 -19 -1 -8 3 -5 6 6 6 11
1 17 -2 13 -5z m608 -214 c-3 -5 -12 -10 -18 -10 -7 0 -6 4 3 10 19 12 23 12
15 0z"/>
<path d="M9628 7553 c17 -2 47 -2 65 0 17 2 3 4 -33 4 -36 0 -50 -2 -32 -4z"/>
<path d="M7460 7809 c0 -5 5 -7 10 -4 6 3 10 8 10 11 0 2 -4 4 -10 4 -5 0 -10
-5 -10 -11z"/>
<path d="M7426 7775 c-9 -26 -7 -32 5 -12 6 10 9 21 6 23 -2 3 -7 -2 -11 -11z"/>
<path d="M5050 7776 c0 -2 9 -6 20 -9 11 -3 18 -1 14 4 -5 9 -34 13 -34 5z"/>
<path d="M3928 7713 c7 -3 16 -2 19 1 4 3 -2 6 -13 5 -11 0 -14 -3 -6 -6z"/>
<path d="M4709 7703 c-13 -16 -12 -17 4 -4 16 13 21 21 13 21 -2 0 -10 -8 -17
-17z"/>
<path d="M7233 7703 c9 -2 25 -2 35 0 9 3 1 5 -18 5 -19 0 -27 -2 -17 -5z"/>
<path d="M2423 7693 c-13 -2 -23 -11 -23 -20 0 -13 3 -13 15 -3 9 7 18 10 22
6 8 -8 -29 -36 -39 -30 -5 3 -8 14 -8 25 0 30 -24 17 -28 -14 -3 -22 1 -27 18
-27 19 0 21 -4 16 -47 -3 -27 -3 -42 0 -35 9 20 23 14 17 -8 -3 -12 -12 -20
-21 -18 -18 3 -24 68 -7 81 6 5 4 7 -5 4 -17 -4 -16 29 -12 -476 l2 -310 24
-28 c24 -27 27 -28 140 -31 99 -3 117 -1 122 12 3 9 15 16 26 16 12 0 17 -4
12 -12 -5 -8 -2 -9 10 -5 10 4 20 7 22 7 3 0 2 4 -1 10 -3 5 0 7 8 4 8 -3 19
6 28 23 11 22 14 91 16 328 2 319 -6 500 -18 415 l-6 -45 -1 53 c-2 49 -3 52
-18 38 -18 -19 -28 -21 -18 -5 4 7 1 10 -7 7 -8 -3 -12 -12 -11 -19 2 -8 5
-161 5 -341 2 -297 0 -329 -15 -344 -14 -15 -37 -18 -131 -18 l-113 -1 -2 25
c-1 14 -6 26 -10 28 -4 1 -6 56 -4 121 3 97 0 125 -13 148 -9 15 -14 20 -11
11 3 -10 2 -18 -3 -18 -4 0 -6 -13 -3 -30 3 -18 0 -30 -7 -30 -7 0 -11 25 -11
70 0 40 4 70 10 70 6 0 10 -8 11 -17 0 -15 2 -15 8 2 8 19 9 18 13 -5 3 -15 6
-7 7 23 0 26 -3 47 -9 47 -5 0 -10 7 -10 16 0 8 5 12 10 9 7 -4 10 32 9 109
-1 74 -5 114 -11 110 -6 -4 -8 2 -6 12 3 14 11 18 31 16 15 -1 27 1 27 5 0 4
45 7 100 5 64 -2 100 0 100 7 0 6 -39 12 -97 14 l-98 3 107 2 c59 1 110 7 113
12 10 16 28 12 22 -5 -4 -8 -2 -17 3 -20 6 -4 10 9 10 29 0 20 4 36 9 36 5 0
7 -10 5 -22 -4 -21 -4 -21 4 -3 l9 20 5 -20 c5 -19 6 -19 7 1 0 12 -6 25 -15
28 -17 7 -296 6 -331 -1z m105 -40 c-10 -2 -26 -2 -35 0 -10 3 -2 5 17 5 19 0
27 -2 18 -5z m75 0 c-7 -2 -21 -2 -30 0 -10 3 -4 5 12 5 17 0 24 -2 18 -5z
m-183 -169 c0 -8 -4 -12 -10 -9 -5 3 -10 10 -10 16 0 5 5 9 10 9 6 0 10 -7 10
-16z m-31 -164 c-5 -10 -8 10 -7 55 l0 70 8 -55 c5 -30 4 -61 -1 -70z m28 100
c1 -11 -2 -20 -8 -20 -5 0 -9 9 -9 20 0 11 4 20 8 20 4 0 8 -9 9 -20z"/>
<path d="M8090 7692 c0 -5 14 -7 30 -4 17 2 30 6 30 8 0 2 -13 4 -30 4 -16 0
-30 -4 -30 -8z"/>
<path d="M4620 7604 c-12 -19 -21 -37 -18 -39 2 -2 14 14 26 36 28 49 22 52
-8 3z"/>
<path d="M7075 7629 c-4 -6 -5 -12 -2 -15 2 -3 7 2 10 11 7 17 1 20 -8 4z"/>
<path d="M8331 7554 c0 -11 3 -14 6 -6 3 7 2 16 -1 19 -3 4 -6 -2 -5 -13z"/>
<path d="M2481 7432 c3 -113 5 -125 26 -148 26 -28 28 -42 9 -66 -14 -19 -32
-25 -21 -8 3 6 1 10 -4 10 -12 0 -16 -166 -5 -194 5 -13 22 -16 85 -16 l79 0
0 104 c0 83 -3 105 -15 110 -8 3 -15 15 -15 26 0 11 -5 20 -11 20 -5 0 -7 5
-4 10 3 6 -1 13 -9 16 -9 3 -16 14 -16 23 0 11 7 7 24 -14 17 -20 28 -27 35
-20 11 11 17 252 6 263 -4 4 -43 7 -86 7 l-80 0 2 -123z m43 -80 c-20 -20 -28
-9 -13 17 9 13 16 16 20 9 4 -6 1 -18 -7 -26z m36 -6 c0 -3 -4 -8 -10 -11 -5
-3 -10 -1 -10 4 0 6 5 11 10 11 6 0 10 -2 10 -4z m-37 -46 c3 -11 2 -20 -3
-20 -4 0 -10 9 -13 20 -3 11 -2 20 3 20 4 0 10 -9 13 -20z"/>
<path d="M1945 7480 c11 -5 36 -9 55 -10 19 0 46 -10 60 -21 l25 -21 3 -287 4
-286 -31 -32 c-17 -18 -47 -36 -68 -41 -21 -6 -260 -10 -532 -11 -271 -1 -497
-4 -502 -7 -5 -3 -9 -8 -9 -12 0 -4 262 -5 583 -2 533 5 585 6 610 22 51 34
52 42 52 350 0 275 -1 288 -21 315 -11 15 -36 33 -55 40 -39 14 -206 17 -174
3z"/>
<path d="M425 7470 c-3 -5 -1 -10 4 -10 6 0 11 5 11 10 0 6 -2 10 -4 10 -3 0
-8 -4 -11 -10z"/>
<path d="M385 7450 c-3 -6 1 -7 9 -4 18 7 21 14 7 14 -6 0 -13 -4 -16 -10z"/>
<path d="M1138 7413 c12 -2 32 -2 45 0 12 2 2 4 -23 4 -25 0 -35 -2 -22 -4z"/>
<path d="M1387 7413 c18 -2 50 -2 70 0 21 2 7 4 -32 4 -38 0 -55 -2 -38 -4z"/>
<path d="M1558 7413 c23 -2 61 -2 85 0 23 2 4 4 -43 4 -47 0 -66 -2 -42 -4z"/>
<path d="M4200 7401 c0 -5 5 -13 10 -16 6 -3 10 -2 10 4 0 5 -4 13 -10 16 -5
3 -10 2 -10 -4z"/>
<path d="M873 7353 c15 -2 39 -2 55 0 15 2 2 4 -28 4 -30 0 -43 -2 -27 -4z"/>
<path d="M968 7353 c6 -2 18 -2 25 0 6 3 1 5 -13 5 -14 0 -19 -2 -12 -5z"/>
<path d="M1088 7353 c7 -3 16 -2 19 1 4 3 -2 6 -13 5 -11 0 -14 -3 -6 -6z"/>
<path d="M1138 7353 c12 -2 32 -2 45 0 12 2 2 4 -23 4 -25 0 -35 -2 -22 -4z"/>
<path d="M1288 7353 c34 -2 88 -2 120 0 31 2 3 3 -63 3 -66 0 -92 -1 -57 -3z"/>
<path d="M1603 7353 c9 -2 23 -2 30 0 6 3 -1 5 -18 5 -16 0 -22 -2 -12 -5z"/>
<path d="M1878 7353 c6 -2 18 -2 25 0 6 3 1 5 -13 5 -14 0 -19 -2 -12 -5z"/>
<path d="M8098 7303 c7 -3 16 -2 19 1 4 3 -2 6 -13 5 -11 0 -14 -3 -6 -6z"/>
<path d="M8148 7303 c7 -3 16 -2 19 1 4 3 -2 6 -13 5 -11 0 -14 -3 -6 -6z"/>
<path d="M1458 7293 c12 -2 32 -2 45 0 12 2 2 4 -23 4 -25 0 -35 -2 -22 -4z"/>
<path d="M1698 7293 c12 -2 32 -2 45 0 12 2 2 4 -23 4 -25 0 -35 -2 -22 -4z"/>
<path d="M3730 7271 c0 -5 7 -12 16 -15 14 -5 15 -4 4 9 -14 17 -20 19 -20 6z"/>
<path d="M1493 7223 c20 -2 54 -2 75 0 20 2 3 4 -38 4 -41 0 -58 -2 -37 -4z"/>
<path d="M3550 7174 c-64 -50 -73 -62 -19 -26 39 26 80 63 68 61 -2 0 -24 -16
-49 -35z"/>
<path d="M1208 7173 c7 -3 16 -2 19 1 4 3 -2 6 -13 5 -11 0 -14 -3 -6 -6z"/>
<path d="M9870 7170 c-18 -12 -2 -12 25 0 13 6 15 9 5 9 -8 0 -22 -4 -30 -9z"/>
<path d="M4066 7133 c-6 -14 -5 -15 5 -6 7 7 10 15 7 18 -3 3 -9 -2 -12 -12z"/>
<path d="M5050 7120 l-25 -8 28 -1 c15 -1 27 4 27 9 0 6 -1 10 -2 9 -2 -1 -14
-5 -28 -9z"/>
<path d="M920 7107 c0 -8 7 -17 15 -21 8 -3 15 -2 15 3 0 5 -7 14 -15 21 -12
10 -15 10 -15 -3z"/>
<path d="M1473 7103 c53 -2 141 -2 195 0 53 1 9 3 -98 3 -107 0 -151 -2 -97
-3z"/>
<path d="M865 7090 c-3 -5 -2 -17 3 -26 8 -14 10 -12 10 9 0 29 -3 33 -13 17z"/>
<path d="M4918 7093 c7 -3 16 -2 19 1 4 3 -2 6 -13 5 -11 0 -14 -3 -6 -6z"/>
<path d="M9255 7060 c-3 -6 1 -7 9 -4 18 7 21 14 7 14 -6 0 -13 -4 -16 -10z"/>
<path d="M1088 7043 c12 -2 32 -2 45 0 12 2 2 4 -23 4 -25 0 -35 -2 -22 -4z"/>
<path d="M9113 7003 c9 -2 23 -2 30 0 6 3 -1 5 -18 5 -16 0 -22 -2 -12 -5z"/>
<path d="M4627 6994 c-13 -14 -7 -26 7 -15 11 10 17 8 26 -6 10 -17 11 -17 8
2 -3 20 -28 32 -41 19z"/>
<path d="M8330 6980 c0 -11 2 -20 5 -20 2 0 9 9 15 20 9 16 8 20 -5 20 -8 0
-15 -9 -15 -20z"/>
<path d="M8378 6993 c7 -3 16 -2 19 1 4 3 -2 6 -13 5 -11 0 -14 -3 -6 -6z"/>
<path d="M1163 6983 c15 -2 39 -2 55 0 15 2 2 4 -28 4 -30 0 -43 -2 -27 -4z"/>
<path d="M1345 6980 c-12 -5 1 -6 35 -3 30 3 57 7 59 9 9 8 -75 2 -94 -6z"/>
<path d="M1560 6980 c-25 -4 9 -5 75 -2 66 3 122 6 124 8 7 7 -152 1 -199 -6z"/>
<path d="M9627 6976 c-93 -33 -141 -102 -154 -220 -8 -67 -9 -69 -38 -72 -59
-6 -65 -27 -65 -221 0 -171 0 -174 25 -198 l24 -25 291 0 291 0 24 25 c25 24
25 27 25 197 0 199 -5 214 -71 224 l-39 7 0 61 c-1 99 -42 166 -135 215 -46
24 -120 27 -178 7z m151 -75 c20 -10 47 -30 59 -43 25 -27 46 -107 37 -143 -6
-25 -7 -25 -140 -27 -74 -1 -146 -2 -161 -2 -27 -1 -28 1 -31 51 -4 77 35 147
98 172 40 16 98 12 138 -8z m-28 -341 c24 -24 26 -57 4 -88 -13 -18 -14 -29
-5 -54 19 -53 16 -58 -39 -58 -54 0 -56 3 -41 56 6 21 5 38 -5 55 -20 35 -17
66 8 89 28 25 52 26 78 0z"/>
<path d="M2498 6953 c7 -3 16 -2 19 1 4 3 -2 6 -13 5 -11 0 -14 -3 -6 -6z"/>
<path d="M2558 6953 c17 -2 47 -2 65 0 17 2 3 4 -33 4 -36 0 -50 -2 -32 -4z"/>
<path d="M6525 6920 c-3 -5 -1 -10 4 -10 6 0 11 5 11 10 0 6 -2 10 -4 10 -3 0
-8 -4 -11 -10z"/>
<path d="M5159 6910 c-193 -23 -324 -85 -457 -217 l-94 -93 -58 0 c-241 0
-440 -160 -496 -397 -25 -106 -14 -266 35 -503 23 -107 43 -212 47 -235 3 -22
8 -43 11 -48 2 -4 0 -14 -6 -21 -9 -11 -8 -14 4 -12 12 1 30 -35 69 -139 29
-77 66 -165 82 -195 l29 -55 6 110 c9 142 33 244 120 517 65 206 89 266 89
227 0 -26 99 -177 157 -240 163 -176 391 -277 632 -280 l84 -1 -39 -22 c-44
-24 -54 -50 -27 -64 13 -7 49 -2 128 18 75 20 136 29 190 30 98 0 114 8 97 45
-11 24 -11 26 7 20 10 -3 45 -10 76 -15 32 -5 60 -12 63 -14 7 -8 31 -231 32
-295 0 -36 3 -52 10 -45 9 9 72 172 126 327 16 45 32 76 38 74 7 -3 11 12 11
42 0 25 12 100 25 166 21 101 24 149 24 300 1 190 -7 243 -51 380 -50 158
-124 276 -243 394 -134 133 -312 217 -505 240 -99 12 -119 12 -216 1z"/>
<path d="M5929 6873 c-3 -21 4 -49 15 -55 8 -6 8 -8 -1 -8 -7 0 -13 -11 -13
-25 0 -14 5 -25 11 -25 8 0 7 -5 -1 -15 -11 -13 -8 -21 20 -50 26 -27 43 -35
86 -40 76 -10 123 1 169 41 38 33 39 35 21 49 -17 13 -17 15 -3 21 20 7 23 40
5 48 -10 5 -10 7 0 12 6 3 12 17 12 30 l0 24 -160 0 c-88 0 -161 -3 -161 -7z"/>
<path d="M7980 6840 c-13 -8 -12 -10 3 -10 9 0 17 5 17 10 0 12 -1 12 -20 0z"/>
<path d="M8083 6843 c9 -2 23 -2 30 0 6 3 -1 5 -18 5 -16 0 -22 -2 -12 -5z"/>
<path d="M8178 6843 c12 -2 32 -2 45 0 12 2 2 4 -23 4 -25 0 -35 -2 -22 -4z"/>
<path d="M9088 6843 c6 -2 18 -2 25 0 6 3 1 5 -13 5 -14 0 -19 -2 -12 -5z"/>
<path d="M8941 6764 c0 -11 3 -14 6 -6 3 7 2 16 -1 19 -3 4 -6 -2 -5 -13z"/>
<path d="M6738 6723 c7 -3 16 -2 19 1 4 3 -2 6 -13 5 -11 0 -14 -3 -6 -6z"/>
<path d="M2972 6680 c-22 -20 -22 -25 -22 -314 0 -336 -3 -326 87 -329 l48 -2
6 -50 c3 -36 7 -45 13 -33 4 10 12 15 17 13 5 -3 37 12 71 35 l62 40 176 0
c162 0 178 2 194 19 10 11 15 25 11 30 -3 6 -1 11 4 11 7 0 11 92 11 279 l0
280 -27 20 c-25 20 -38 21 -327 21 -290 0 -303 -1 -324 -20z m45 -6 c-3 -3
-12 -4 -19 -1 -8 3 -5 6 6 6 11 1 17 -2 13 -5z m617 -20 c4 -11 2 -12 -14 -1
-11 6 -20 15 -20 19 0 12 28 -3 34 -18z m-329 -145 c17 0 42 2 57 6 39 10 74
-1 106 -33 24 -23 27 -32 22 -62 -4 -19 -11 -44 -17 -55 -14 -26 -158 -165
-170 -165 -6 0 -18 9 -28 20 -10 11 -24 20 -32 20 -7 0 -13 3 -13 8 0 4 -14
23 -31 42 -67 75 -79 96 -79 138 0 33 6 45 32 67 27 23 38 26 77 21 25 -4 60
-7 76 -7z m252 -455 c-3 -3 -12 -4 -19 -1 -8 3 -5 6 6 6 11 1 17 -2 13 -5z"/>
<path d="M9088 6673 c6 -2 18 -2 25 0 6 3 1 5 -13 5 -14 0 -19 -2 -12 -5z"/>
<path d="M7230 6630 c-9 -6 -10 -10 -3 -10 6 0 15 5 18 10 8 12 4 12 -15 0z"/>
<path d="M2740 6609 c-10 -17 -9 -23 1 -30 21 -13 34 -5 34 21 0 31 -21 37
-35 9z"/>
<path d="M1848 6593 c6 -2 18 -2 25 0 6 3 1 5 -13 5 -14 0 -19 -2 -12 -5z"/>
<path d="M1938 6593 c6 -2 18 -2 25 0 6 3 1 5 -13 5 -14 0 -19 -2 -12 -5z"/>
<path d="M2473 6535 c-2 -56 0 -63 15 -58 24 9 92 52 92 58 0 6 -91 65 -99 65
-4 0 -7 -29 -8 -65z"/>
<path d="M1453 6565 c-29 -13 -53 -28 -53 -32 0 -8 102 -63 115 -63 2 0 4 27
4 60 0 33 -4 60 -7 60 -4 0 -31 -11 -59 -25z"/>
<path d="M1564 6569 c-2 -3 -3 -27 -2 -52 0 -34 5 -48 17 -51 28 -9 345 -4
363 5 11 6 18 5 21 -4 6 -20 37 12 37 39 0 22 4 24 43 23 23 -1 32 -4 20 -6
-30 -6 -29 -17 2 -31 33 -15 92 -15 97 -1 3 8 16 10 41 5 52 -10 36 -26 -24
-24 -27 0 -53 -2 -56 -6 -8 -8 119 -8 227 1 55 4 77 9 65 14 -16 6 -17 8 -4 8
13 1 18 13 21 47 l3 45 -433 -3 c-239 -2 -436 -6 -438 -9z m179 -56 c-13 -2
-33 -2 -45 0 -13 2 -3 4 22 4 25 0 35 -2 23 -4z m170 0 c-7 -2 -21 -2 -30 0
-10 3 -4 5 12 5 17 0 24 -2 18 -5z m-10 -30 c-13 -2 -33 -2 -45 0 -13 2 -3 4
22 4 25 0 35 -2 23 -4z"/>
<path d="M555 6550 c-3 -5 1 -10 9 -10 9 0 16 5 16 10 0 6 -4 10 -9 10 -6 0
-13 -4 -16 -10z"/>
<path d="M3957 6544 c-12 -12 -8 -41 8 -54 18 -15 20 1 3 18 -7 7 -8 12 -2 12
6 0 15 -5 20 -10 7 -7 10 -4 9 12 -2 23 -24 35 -38 22z"/>
<path d="M7905 6529 c-4 -6 -5 -12 -2 -15 2 -3 7 2 10 11 7 17 1 20 -8 4z"/>
<path d="M2000 6470 c0 -5 18 -10 40 -10 22 0 40 5 40 10 0 6 -18 10 -40 10
-22 0 -40 -4 -40 -10z"/>
<path d="M7387 6474 c-8 -9 3 -34 36 -81 30 -42 32 -43 88 -43 57 0 59 1 94
46 60 80 55 84 -88 84 -68 0 -126 -3 -130 -6z"/>
<path d="M8466 6467 c3 -10 9 -15 12 -12 3 3 0 11 -7 18 -10 9 -11 8 -5 -6z"/>
<path d="M470 6456 c0 -9 5 -16 10 -16 6 0 10 4 10 9 0 6 -4 13 -10 16 -5 3
-10 -1 -10 -9z"/>
<path d="M501 6454 c0 -11 3 -14 6 -6 3 7 2 16 -1 19 -3 4 -6 -2 -5 -13z"/>
<path d="M7965 6460 c-3 -5 -1 -10 4 -10 6 0 11 5 11 10 0 6 -2 10 -4 10 -3 0
-8 -4 -11 -10z"/>
<path d="M6616 6413 c-6 -14 -5 -15 5 -6 7 7 10 15 7 18 -3 3 -9 -2 -12 -12z"/>
<path d="M9158 6423 c7 -3 16 -2 19 1 4 3 -2 6 -13 5 -11 0 -14 -3 -6 -6z"/>
<path d="M7915 6409 c-4 -6 -5 -12 -2 -15 2 -3 7 2 10 11 7 17 1 20 -8 4z"/>
<path d="M8996 6351 l-27 -28 28 -34 c49 -60 167 -193 188 -211 11 -10 27 -17
36 -18 15 0 59 39 59 53 0 15 -232 267 -247 267 -5 0 -22 -13 -37 -29z"/>
<path d="M945 6328 c-35 -19 -65 -51 -65 -69 0 -9 -10 -19 -23 -23 -28 -7
-117 -77 -117 -91 0 -21 76 -85 108 -91 44 -9 54 18 18 51 -29 27 -33 56 -10
75 13 11 20 8 45 -23 29 -35 33 -37 93 -37 34 0 67 5 73 11 7 7 16 0 31 -25
17 -29 21 -50 19 -105 -2 -65 0 -72 28 -101 17 -18 49 -36 73 -43 37 -10 46
-18 62 -54 18 -40 22 -43 58 -43 23 0 45 6 52 15 8 10 21 13 39 8 39 -10 61
-6 83 14 32 29 40 60 23 98 -19 47 -53 62 -105 46 -56 -17 -76 -4 -83 54 -3
29 -13 55 -27 70 -24 25 -104 58 -115 47 -4 -4 -5 2 -3 13 3 17 11 20 66 20
55 0 65 3 82 25 45 58 7 149 -63 150 -31 0 -83 -24 -89 -41 -2 -6 -21 -12 -42
-14 -30 -2 -41 3 -53 22 -31 47 -110 68 -158 41z m230 -128 c10 -32 -4 -60
-30 -60 -28 0 -41 30 -25 60 14 26 47 26 55 0z m195 -325 c26 -31 -13 -82 -44
-56 -19 16 -21 57 -3 64 22 9 34 7 47 -8z"/>
<path d="M2610 6290 c0 -5 5 -10 10 -10 6 0 10 5 10 10 0 6 -4 10 -10 10 -5 0
-10 -4 -10 -10z"/>
<path d="M7913 6261 c-25 -12 -54 -37 -72 -63 -49 -69 -47 -68 -123 -68 -70 0
-72 1 -103 38 l-33 37 -223 -3 c-212 -3 -225 -4 -241 -24 -23 -26 -23 -61 0
-81 16 -15 46 -17 215 -17 l197 0 0 -43 c0 -74 17 -82 180 -82 150 0 171 7
184 61 l6 24 531 0 530 0 -3 36 c-2 29 -9 40 -33 53 -16 9 -51 37 -76 62 -117
118 -306 119 -429 2 l-54 -53 -92 0 -91 0 -32 49 c-54 84 -148 112 -238 72z"/>
<path d="M2630 6252 c0 -6 9 -12 20 -15 11 -3 20 -3 20 -1 0 2 -9 8 -20 14
-11 6 -20 7 -20 2z"/>
<path d="M2610 6200 c0 -5 5 -10 11 -10 5 0 7 5 4 10 -3 6 -8 10 -11 10 -2 0
-4 -4 -4 -10z"/>
<path d="M2127 6156 c-21 -8 -57 -27 -79 -43 -42 -29 -107 -108 -108 -130 0
-7 -5 -13 -10 -13 -24 0 -74 -48 -97 -94 -54 -105 -38 -234 39 -321 72 -82 53
-79 569 -83 327 -2 469 0 500 8 58 16 125 82 134 134 22 115 -81 218 -203 202
l-48 -6 -22 45 c-13 27 -37 55 -64 72 -36 24 -51 28 -112 27 l-71 0 -18 36
c-27 58 -80 113 -138 145 -46 25 -67 30 -144 32 -60 2 -103 -1 -128 -11z"/>
<path d="M566 6116 c3 -8 13 -17 22 -21 13 -5 13 -2 -3 15 -21 24 -26 25 -19
6z"/>
<path d="M459 6093 c-13 -16 -12 -17 4 -4 16 13 21 21 13 21 -2 0 -10 -8 -17
-17z"/>
<path d="M7985 5970 c-13 -14 -19 -41 -23 -95 l-5 -75 788 0 787 0 -3 80 c-3
47 -9 84 -17 92 -10 10 -165 14 -761 16 -738 2 -748 2 -766 -18z m191 -71 c9
-15 -16 -49 -36 -49 -24 0 -40 48 -20 60 14 9 48 2 56 -11z m113 12 c21 -13 6
-61 -19 -61 -25 0 -40 48 -19 61 8 5 16 9 19 9 3 0 11 -4 19 -9z m136 -19 c7
-20 -19 -47 -39 -39 -19 7 -21 38 -5 54 14 14 35 7 44 -15z"/>
<path d="M6272 5968 c-29 -29 1 -88 45 -88 23 0 53 29 53 51 -1 41 -68 67 -98
37z"/>
<path d="M9817 5973 c-4 -3 -7 -15 -7 -25 0 -10 -4 -18 -10 -18 -5 0 -21 -20
-36 -45 -25 -44 -26 -47 -14 -111 7 -36 11 -66 9 -67 -2 -2 -17 -7 -34 -13
-54 -17 -61 -50 -36 -188 11 -67 34 -184 51 -261 16 -77 31 -164 32 -192 1
-29 5 -53 8 -53 3 -1 41 -3 85 -6 l80 -6 1 74 c1 46 16 131 39 228 25 102 38
181 39 231 0 43 4 75 7 73 9 -5 3 71 -6 86 -4 7 -18 9 -34 6 -17 -4 -21 -3
-13 2 11 7 8 11 -8 15 -18 5 -21 10 -16 29 4 13 10 43 12 68 5 37 1 52 -22 88
-16 23 -34 42 -41 42 -19 0 -16 -10 10 -32 19 -17 22 -29 22 -92 0 -76 -13
-106 -45 -106 -14 0 -18 12 -24 61 -3 34 -6 79 -6 100 0 22 -3 39 -7 39 -5 0
-8 -44 -8 -97 0 -93 -1 -98 -22 -101 -17 -3 -24 5 -38 49 -22 64 -15 127 15
151 12 10 20 18 16 18 -3 0 -1 12 5 26 10 27 8 40 -4 27z m206 -337 c3 -8 1
-16 -4 -18 -6 -2 -11 -12 -13 -23 -5 -31 -106 -59 -122 -34 -5 8 0 10 17 6 26
-7 54 5 54 23 0 5 4 9 8 8 5 -2 13 5 18 15 6 9 15 14 21 11 7 -5 9 -1 5 9 -3
10 -2 17 2 17 5 0 11 -6 14 -14z m-260 -21 c-5 -16 -33 -21 -33 -7 0 13 22 32
31 26 5 -2 6 -11 2 -19z m57 -45 c0 -5 -8 -10 -17 -10 -15 0 -16 2 -3 10 19
12 20 12 20 0z"/>
<path d="M9841 5968 c-1 -10 1 -18 3 -18 2 0 11 -3 20 -6 9 -3 16 -1 16 5 0 6
-6 11 -14 11 -8 0 -17 6 -19 13 -3 7 -6 5 -6 -5z"/>
<path d="M9861 5977 c2 -1 15 -11 28 -22 l24 -20 -12 23 c-6 12 -19 22 -28 22
-9 0 -14 -1 -12 -3z"/>
<path d="M6988 5946 c-65 -19 -132 -60 -165 -101 -27 -34 -30 -35 -99 -35 -39
0 -85 -5 -103 -11 -49 -17 -66 -63 -35 -93 14 -14 81 -16 593 -16 568 0 578 0
596 20 15 16 17 26 9 48 -16 45 -44 52 -227 52 l-169 0 -44 46 c-62 64 -139
97 -234 100 -42 2 -95 -2 -122 -10z"/>
<path d="M7970 5723 c0 -21 -1 -275 -1 -566 -1 -471 1 -530 15 -552 l16 -25
738 0 739 0 24 26 24 26 3 564 3 564 -56 0 c-37 0 -55 -4 -55 -12 0 -7 0 -245
0 -529 0 -470 -1 -518 -16 -530 -14 -12 -129 -15 -656 -17 -556 -3 -640 -1
-653 12 -13 13 -15 88 -15 545 l0 531 -55 0 -55 0 0 -37z"/>
<path d="M1613 5693 c-6 -5 -15 -21 -18 -36 -13 -50 46 -75 87 -38 30 28 13
75 -28 79 -16 1 -34 -1 -41 -5z"/>
<path d="M797 5569 c7 -7 15 -10 18 -7 3 3 -2 9 -12 12 -14 6 -15 5 -6 -5z"/>
<path d="M953 5553 c9 -2 23 -2 30 0 6 3 -1 5 -18 5 -16 0 -22 -2 -12 -5z"/>
<path d="M7698 5503 c12 -2 32 -2 45 0 12 2 2 4 -23 4 -25 0 -35 -2 -22 -4z"/>
<path d="M1537 5474 c-4 -4 -7 -27 -7 -51 0 -36 -4 -45 -22 -52 -16 -6 -32 -4
-50 7 -26 15 -29 15 -45 0 -14 -14 -15 -22 -5 -43 16 -35 7 -47 -23 -33 -34
15 -55 4 -55 -30 0 -24 5 -29 40 -38 39 -11 40 -11 58 25 55 106 212 110 264
7 26 -53 24 -51 51 -39 12 6 30 14 40 17 11 3 17 16 17 36 0 37 -23 49 -50 25
-28 -25 -43 -10 -35 36 5 31 3 40 -10 46 -10 3 -26 1 -36 -5 -46 -29 -76 -9
-81 53 -2 31 -7 41 -23 43 -12 2 -24 0 -28 -4z"/>
<path d="M4055 5446 c-56 -12 -126 -38 -121 -44 3 -2 24 3 47 12 23 9 62 18
86 20 25 2 50 9 56 15 8 8 8 11 -1 11 -7 0 -12 -6 -12 -12 0 -8 -3 -9 -8 -3
-4 7 -21 7 -47 1z"/>
<path d="M6259 5419 c41 -10 76 -17 78 -15 7 6 -102 36 -129 35 -12 0 10 -9
51 -20z"/>
<path d="M3330 5412 c0 -16 32 -24 44 -11 8 9 8 10 -2 5 -7 -4 -19 -2 -27 4
-9 7 -15 8 -15 2z"/>
<path d="M3852 5377 c-38 -20 -47 -37 -19 -37 6 0 7 3 4 7 -4 3 15 16 41 29
26 12 40 23 32 23 -8 0 -34 -10 -58 -22z"/>
<path d="M6360 5390 c8 -5 20 -10 25 -10 6 0 3 5 -5 10 -8 5 -19 10 -25 10 -5
0 -3 -5 5 -10z"/>
<path d="M4572 5378 c-26 -26 -13 -46 41 -61 28 -8 95 -27 147 -42 170 -49
169 -48 185 -35 42 35 -1 59 -230 124 -100 29 -126 31 -143 14z"/>
<path d="M6405 5370 c3 -6 11 -10 17 -10 5 0 29 -13 52 -28 64 -44 70 -47 62
-33 -4 6 -26 23 -47 37 -48 30 -93 48 -84 34z"/>
<path d="M2014 5274 c-47 -80 -71 -100 -146 -121 -32 -9 -58 -19 -58 -23 0 -3
26 -17 57 -30 70 -29 133 -85 158 -140 10 -22 21 -40 24 -40 3 0 18 22 33 49
31 54 83 104 134 129 19 8 34 19 34 24 0 4 -17 16 -37 27 -50 25 -95 74 -131
139 l-29 53 -39 -67z"/>
<path d="M3750 5315 c-19 -14 -29 -25 -23 -25 6 0 16 7 23 15 7 8 18 15 26 15
7 0 16 5 19 10 11 18 -10 11 -45 -15z"/>
<path d="M2332 5253 c-3 -10 -7 -45 -7 -78 l0 -60 532 -3 c599 -3 563 -7 563
74 0 92 50 84 -551 84 -495 0 -530 -1 -537 -17z m186 -67 c4 -18 -13 -36 -34
-36 -13 0 -26 39 -18 52 10 16 49 4 52 -16z m107 -6 c0 -16 -6 -26 -18 -28
-19 -4 -32 20 -23 44 9 25 41 13 41 -16z"/>
<path d="M6600 5235 c7 -9 15 -13 17 -11 7 7 -7 26 -19 26 -6 0 -6 -6 2 -15z"/>
<path d="M1790 5224 c0 -9 5 -14 12 -12 18 6 21 28 4 28 -9 0 -16 -7 -16 -16z"/>
<path d="M6636 5210 c27 -46 61 -90 72 -95 7 -3 -4 17 -24 43 -46 57 -60 72
-48 52z"/>
<path d="M4042 5185 c0 -16 2 -22 5 -12 2 9 2 23 0 30 -3 6 -5 -1 -5 -18z"/>
<path d="M1252 5178 c4 -30 56 -38 75 -12 21 29 16 34 -33 34 -41 0 -45 -2
-42 -22z m47 -11 c0 -9 -2 -8 -6 1 -2 6 -10 9 -15 6 -7 -4 -8 -2 -4 5 9 13 26
5 25 -12z"/>
<path d="M712 5170 c-114 -24 -239 -125 -295 -239 -28 -58 -32 -78 -35 -165
-4 -95 10 -186 29 -186 14 0 3 -52 -23 -110 -14 -30 -29 -66 -32 -80 l-7 -25
21 25 c12 14 19 19 15 13 -9 -18 20 -16 35 2 7 8 15 13 19 10 4 -2 20 3 35 11
37 18 48 18 72 -4 38 -35 72 -51 95 -46 18 4 20 3 10 -4 -24 -17 87 -35 185
-30 72 4 100 10 147 33 71 35 172 128 163 151 -3 8 -2 12 4 9 12 -7 33 32 24
47 -5 7 -3 8 6 3 10 -6 12 -3 8 13 -4 14 -2 20 5 15 6 -4 8 0 4 10 -3 9 -1 17
6 20 7 2 11 39 12 108 0 102 -1 106 -39 182 -48 96 -109 159 -146 152 -20 -4
-21 -4 -5 3 18 8 18 9 -5 25 -81 53 -211 77 -308 57z m258 -50 c0 -5 -2 -10
-4 -10 -3 0 -8 5 -11 10 -3 6 -1 10 4 10 6 0 11 -4 11 -10z m-114 -131 c6 -5
15 -5 19 -1 5 4 5 2 2 -4 -17 -30 89 -78 118 -54 12 10 15 9 15 -3 0 -8 7 -20
16 -28 13 -11 15 -36 12 -167 l-3 -154 -28 -24 c-26 -22 -36 -24 -143 -24 -64
0 -124 -5 -136 -11 -34 -18 -31 -3 6 33 26 25 34 40 29 56 -3 12 -10 19 -15
16 -6 -4 -8 1 -4 14 5 14 0 25 -16 36 -12 9 -18 16 -14 16 15 0 46 -32 46 -47
0 -7 5 -13 10 -13 15 0 12 8 -10 40 -23 32 -94 53 -151 44 -47 -7 -69 12 -62
53 3 18 9 31 13 28 4 -3 10 4 13 15 3 12 1 18 -5 14 -6 -4 -8 -1 -6 7 3 8 11
13 18 11 8 -2 11 4 7 18 -3 11 -1 23 4 26 5 3 7 27 3 55 -6 45 -5 49 17 58 28
12 228 3 245 -10z m-91 -479 c-3 -5 -11 -10 -16 -10 -6 0 -7 5 -4 10 3 6 11
10 16 10 6 0 7 -4 4 -10z m-325 -4 c0 -3 -4 -8 -10 -11 -5 -3 -10 -1 -10 4 0
6 5 11 10 11 6 0 10 -2 10 -4z m-25 -26 c3 -5 1 -10 -4 -10 -6 0 -11 5 -11 10
0 6 2 10 4 10 3 0 8 -4 11 -10z m50 0 c3 -5 1 -10 -4 -10 -6 0 -11 5 -11 10 0
6 2 10 4 10 3 0 8 -4 11 -10z m235 -110 c8 -5 11 -10 5 -10 -5 0 -17 5 -25 10
-8 5 -10 10 -5 10 6 0 17 -5 25 -10z"/>
<path d="M770 4609 c0 -5 5 -7 10 -4 6 3 10 8 10 11 0 2 -4 4 -10 4 -5 0 -10
-5 -10 -11z"/>
<path d="M7538 5153 c12 -2 32 -2 45 0 12 2 2 4 -23 4 -25 0 -35 -2 -22 -4z"/>
<path d="M7683 5153 c15 -2 39 -2 55 0 15 2 2 4 -28 4 -30 0 -43 -2 -27 -4z"/>
<path d="M1358 5134 c-30 -16 -34 -33 -17 -66 11 -20 11 -20 35 3 32 30 51 14
36 -30 -15 -41 5 -59 47 -41 17 6 35 9 40 5 6 -3 11 -38 11 -77 0 -64 -3 -73
-30 -105 -40 -46 -41 -100 -2 -143 38 -43 80 -52 128 -30 75 33 85 135 20 189
-12 10 -16 32 -16 81 0 81 14 100 60 83 37 -14 53 2 44 46 -7 35 8 41 38 15
14 -14 20 -14 33 -4 23 19 18 44 -15 68 -32 24 -70 29 -70 10 0 -7 -15 -31
-33 -52 -31 -37 -38 -40 -95 -44 -55 -4 -66 -1 -96 21 -18 14 -39 40 -46 56
-14 34 -31 38 -72 15z m202 -214 c0 -33 -4 -60 -10 -60 -6 0 -10 27 -10 60 0
33 4 60 10 60 6 0 10 -27 10 -60z m46 -134 c21 -33 15 -65 -18 -89 l-28 -21
-27 21 c-34 24 -40 56 -19 89 11 16 26 24 46 24 20 0 35 -8 46 -24z"/>
<path d="M4037 5131 c-4 -17 -3 -21 5 -13 5 5 8 16 6 23 -3 8 -7 3 -11 -10z"/>
<path d="M3535 5068 l-16 -33 20 25 c20 24 26 40 16 40 -2 0 -12 -15 -20 -32z"/>
<path d="M7195 5090 c-3 -6 1 -7 9 -4 18 7 21 14 7 14 -6 0 -13 -4 -16 -10z"/>
<path d="M6942 5060 c0 -14 2 -19 5 -12 2 6 2 18 0 25 -3 6 -5 1 -5 -13z"/>
<path d="M2328 4880 l3 -190 44 0 45 0 0 190 0 190 -47 0 -48 0 3 -190z"/>
<path d="M4052 5050 c0 -14 2 -19 5 -12 2 6 2 18 0 25 -3 6 -5 1 -5 -13z"/>
<path d="M6740 5065 c0 -5 5 -17 10 -25 5 -8 10 -10 10 -5 0 6 -5 17 -10 25
-5 8 -10 11 -10 5z"/>
<path d="M3502 5010 c-7 -11 -12 -25 -12 -32 0 -7 7 0 15 16 18 33 15 45 -3
16z"/>
<path d="M8620 5026 c0 -2 8 -10 18 -17 15 -13 16 -12 3 4 -13 16 -21 21 -21
13z"/>
<path d="M2663 4993 c-28 -3 -43 -9 -43 -18 0 -16 153 -28 297 -23 76 2 93 6
96 20 3 9 2 19 -1 22 -6 6 -279 5 -349 -1z"/>
<path d="M3080 4975 c0 -25 1 -25 80 -25 79 0 80 0 80 25 0 25 -1 25 -80 25
-79 0 -80 0 -80 -25z"/>
<path d="M8775 4980 c-3 -5 -1 -10 4 -10 6 0 11 5 11 10 0 6 -2 10 -4 10 -3 0
-8 -4 -11 -10z"/>
<path d="M6190 4955 c-5 -14 -28 -45 -51 -70 -23 -25 -39 -45 -35 -45 10 0 86
84 86 95 0 5 4 4 8 -3 6 -8 9 -2 9 18 0 37 -4 38 -17 5z"/>
<path d="M7443 4973 c9 -2 23 -2 30 0 6 3 -1 5 -18 5 -16 0 -22 -2 -12 -5z"/>
<path d="M4100 4920 c0 -5 5 -10 11 -10 5 0 7 5 4 10 -3 6 -8 10 -11 10 -2 0
-4 -4 -4 -10z"/>
<path d="M9774 4916 c-3 -8 -2 -21 2 -28 5 -7 7 -21 6 -30 -3 -19 66 -168 78
-168 13 0 18 24 9 45 -4 11 -8 29 -7 40 0 11 4 5 10 -14 5 -18 13 -30 17 -25
15 19 51 121 53 154 l3 35 -83 3 c-66 2 -83 0 -88 -12z m86 -194 c0 -15 -2
-15 -10 -2 -13 20 -13 33 0 25 6 -3 10 -14 10 -23z"/>
<path d="M2588 4913 c-22 -3 -28 -10 -28 -29 0 -24 1 -24 93 -25 50 0 86 -3
80 -6 -7 -2 -13 -11 -13 -18 0 -14 78 -26 83 -12 1 5 31 10 66 13 41 2 71 10
83 20 10 10 17 18 15 20 -1 2 -65 12 -141 23 -133 20 -179 23 -238 14z"/>
<path d="M3456 4877 c3 -10 9 -15 12 -12 3 3 0 11 -7 18 -10 9 -11 8 -5 -6z"/>
<path d="M1797 4858 c-11 -9 -15 -21 -11 -35 8 -28 35 -39 50 -19 6 9 14 13
17 9 4 -3 7 0 7 9 0 10 -9 14 -30 13 -16 -1 -27 2 -24 7 3 4 15 8 27 8 18 0
19 2 7 10 -19 13 -23 12 -43 -2z"/>
<path d="M4163 4845 c0 -8 4 -12 9 -9 5 3 6 10 3 15 -9 13 -12 11 -12 -6z"/>
<path d="M8383 4843 c15 -2 37 -2 50 0 12 2 0 4 -28 4 -27 0 -38 -2 -22 -4z"/>
<path d="M8573 4843 c42 -2 112 -2 155 0 42 1 7 3 -78 3 -85 0 -120 -2 -77 -3z"/>
<path d="M8922 4838 c31 -7 56 -7 75 0 23 9 15 10 -47 10 -75 0 -75 0 -28 -10z"/>
<path d="M4213 4815 c15 -14 36 -25 47 -25 10 0 27 -2 37 -5 10 -3 7 0 -7 6
-14 7 -43 20 -65 31 l-40 19 28 -26z"/>
<path d="M6075 4830 c-3 -5 -1 -10 4 -10 6 0 11 5 11 10 0 6 -2 10 -4 10 -3 0
-8 -4 -11 -10z"/>
<path d="M2124 4795 c-13 -32 24 -63 41 -35 3 6 -1 7 -9 4 -21 -8 -34 25 -15
37 10 6 11 9 1 9 -7 0 -15 -7 -18 -15z"/>
<path d="M5973 4789 c-18 -5 -33 -12 -33 -15 0 -9 73 6 85 17 11 11 -9 11 -52
-2z"/>
<path d="M2820 4780 c-8 -5 -52 -10 -96 -10 -117 0 -144 -7 -144 -36 0 -24 2
-24 96 -24 52 0 103 4 113 9 10 6 33 6 54 2 30 -7 39 -5 54 11 18 20 17 20 -7
13 -20 -6 -23 -5 -13 6 10 10 9 15 -5 25 -20 16 -32 17 -52 4z"/>
<path d="M2923 4763 c9 -2 23 -2 30 0 6 3 -1 5 -18 5 -16 0 -22 -2 -12 -5z"/>
<path d="M4308 4753 c7 -3 16 -2 19 1 4 3 -2 6 -13 5 -11 0 -14 -3 -6 -6z"/>
<path d="M6852 4695 c0 -16 2 -22 5 -12 2 9 2 23 0 30 -3 6 -5 -1 -5 -18z"/>
<path d="M1830 4659 c-88 -40 -138 -111 -147 -210 l-6 -58 -38 -6 c-65 -11
-69 -25 -69 -231 0 -171 1 -182 21 -200 20 -18 40 -19 341 -19 l320 0 19 24
c17 21 19 41 19 206 0 205 -3 215 -73 215 l-37 0 0 48 c0 81 -17 123 -73 177
-79 76 -183 97 -277 54z m205 -80 c19 -13 43 -40 54 -60 26 -45 29 -124 5
-133 -20 -8 -292 -8 -321 0 -49 13 -16 149 46 193 61 44 151 44 216 0z m-51
-342 c20 -27 20 -28 2 -62 -16 -30 -17 -41 -8 -74 7 -21 12 -41 12 -45 0 -3
-28 -6 -61 -6 -59 0 -61 1 -55 23 15 51 18 85 7 91 -17 11 -13 67 6 88 24 27
71 20 97 -15z"/>
<path d="M7393 4668 c-13 -6 -25 -19 -28 -29 -3 -11 -8 -28 -11 -39 -3 -11 -2
-20 3 -18 20 5 163 -15 163 -23 0 -5 -19 -6 -42 -2 -24 5 -95 8 -158 7 -148
-1 -230 -26 -297 -90 l-45 -43 4 -63 c4 -75 41 -159 118 -273 50 -74 201 -255
254 -304 23 -22 26 -32 26 -91 0 -82 34 -157 109 -240 l50 -55 1 33 c0 24 -10
46 -34 75 -47 58 -76 120 -76 161 0 30 4 35 26 38 25 3 25 3 -26 68 -29 36
-76 90 -104 120 -157 164 -296 389 -296 479 0 34 48 79 108 102 134 51 333 33
487 -43 100 -49 214 -151 277 -248 43 -66 82 -172 75 -200 -3 -13 -1 -18 6
-13 28 15 47 38 47 55 0 14 5 18 18 14 84 -27 261 -67 294 -68 52 -1 86 25
118 88 22 43 25 62 25 149 -1 161 -38 208 -164 207 -107 0 -212 -42 -331 -131
-30 -23 -57 -37 -61 -33 -3 4 -9 20 -13 35 -5 21 -4 27 6 21 6 -4 2 7 -10 24
-13 17 -26 33 -30 36 -12 7 -38 -12 -29 -21 5 -4 13 -1 18 7 8 11 9 9 4 -10
-5 -19 -4 -21 4 -10 5 8 13 11 18 7 4 -5 2 -12 -5 -16 -10 -6 -10 -11 3 -21 8
-7 15 -16 15 -20 0 -5 -25 17 -55 49 -30 32 -55 62 -55 67 0 4 7 -2 16 -14 8
-12 19 -22 23 -22 14 0 21 29 9 36 -7 4 -8 3 -4 -4 4 -7 2 -12 -3 -12 -6 0
-11 5 -11 11 0 5 -14 15 -31 21 -29 10 -31 13 -25 50 8 47 45 159 57 173 5 5
9 15 9 22 0 35 -142 -2 -216 -55 -50 -36 -75 -46 -67 -26 3 7 0 14 -7 14 -6 0
-9 4 -5 9 3 6 -8 24 -24 40 -24 24 -39 31 -68 30 -21 0 -48 -5 -60 -11z m348
-127 l-25 -90 -60 33 c-33 18 -61 37 -63 43 -4 12 141 101 168 103 3 0 -6 -40
-20 -89z m656 -195 c25 -22 28 -31 31 -104 5 -103 -18 -189 -53 -202 -15 -6
-43 -6 -67 -1 -85 17 -273 62 -286 69 -7 4 -23 24 -35 46 l-22 38 46 42 c84
76 218 134 316 135 30 1 49 -6 70 -23z"/>
<path d="M5891 4654 c0 -11 3 -14 6 -6 3 7 2 16 -1 19 -3 4 -6 -2 -5 -13z"/>
<path d="M2320 4587 c0 -40 5 -70 16 -85 l15 -22 524 0 c490 0 524 -1 528 -17
2 -10 3 -6 1 8 -1 14 3 38 11 52 8 15 10 27 4 27 -5 0 -9 11 -9 25 l0 25 -495
0 -495 0 0 25 c0 23 -3 25 -50 25 l-50 0 0 -63z"/>
<path d="M4401 4635 c0 -5 6 -21 14 -35 8 -14 14 -20 14 -15 0 6 -6 21 -14 35
-8 14 -14 21 -14 15z"/>
<path d="M5871 4603 c-10 -26 -10 -27 4 -9 8 11 15 23 15 28 0 15 -7 8 -19
-19z"/>
<path d="M6863 4535 c0 -33 2 -45 4 -27 2 18 2 45 0 60 -2 15 -4 0 -4 -33z"/>
<path d="M9940 4525 c0 -8 5 -15 10 -15 6 0 10 7 10 15 0 8 -4 15 -10 15 -5 0
-10 -7 -10 -15z"/>
<path d="M4457 4497 c-3 -8 1 -14 8 -14 7 0 11 6 8 14 -3 7 -6 13 -8 13 -2 0
-5 -6 -8 -13z"/>
<path d="M5816 4495 c-3 -9 -6 -22 -5 -28 0 -7 5 -1 10 12 5 13 8 26 5 28 -2
2 -6 -3 -10 -12z"/>
<path d="M9911 4493 c-7 -8 -11 -16 -8 -19 2 -2 10 2 17 11 17 20 9 27 -9 8z"/>
<path d="M4480 4463 c0 -6 8 -17 18 -24 16 -13 16 -13 2 6 -8 11 -16 22 -17
24 -2 2 -3 0 -3 -6z"/>
<path d="M5735 4373 c-200 -262 -378 -376 -586 -375 -202 2 -364 99 -563 340
-55 66 -71 80 -82 71 -12 -10 -11 -29 2 -29 3 0 3 4 -1 9 -3 5 -1 12 5 16 5 3
10 1 11 -4 4 -38 2 -58 -6 -70 -5 -9 -4 -12 2 -8 5 3 20 -17 33 -46 16 -35 25
-46 27 -34 6 25 14 21 53 -29 87 -112 255 -223 395 -259 203 -52 438 35 614
228 47 50 61 57 62 30 0 -11 5 -7 11 11 8 21 13 25 19 15 6 -10 9 -6 9 14 0
15 5 27 11 27 5 0 8 4 5 9 -3 5 1 30 9 57 8 26 12 51 9 56 -3 4 0 8 5 8 6 0
11 6 11 14 0 8 6 17 13 19 6 3 7 6 2 6 -6 1 -37 -34 -70 -76z"/>
<path d="M6872 4425 c0 -16 2 -22 5 -12 2 9 2 23 0 30 -3 6 -5 -1 -5 -18z"/>
<path d="M8717 4423 c-15 -2 -32 -13 -37 -24 -12 -22 -10 -523 3 -535 4 -4 15
-8 25 -9 9 -1 25 -6 35 -10 11 -4 59 -5 107 -2 104 8 117 -3 74 -59 -15 -19
-22 -34 -16 -34 6 0 14 5 17 10 4 6 11 7 17 4 7 -4 8 -2 4 4 -5 8 0 12 12 12
11 0 46 14 77 30 54 29 63 30 181 30 76 0 124 4 124 10 0 6 9 10 20 10 11 0
20 5 20 11 0 5 -4 8 -8 5 -4 -2 -8 4 -8 15 0 10 4 19 8 19 4 0 8 -5 8 -11 0
-5 3 -8 8 -6 4 3 9 108 10 235 4 249 -2 284 -50 295 -27 6 -590 6 -631 0z
m493 -188 c5 -3 10 -15 10 -26 0 -25 -58 -53 -78 -37 -8 7 -40 8 -89 4 -154
-14 -131 -43 26 -33 53 3 102 2 109 -2 7 -4 12 -22 10 -39 -1 -17 -4 -29 -6
-27 -9 9 -33 -25 -26 -36 4 -8 3 -9 -5 -5 -7 5 -33 -10 -64 -37 -50 -42 -111
-68 -101 -42 3 6 -7 22 -21 35 -14 13 -25 20 -25 17 0 -4 -17 12 -37 35 -21
24 -41 45 -45 46 -5 2 -8 14 -8 27 0 16 7 25 20 27 18 3 15 8 -19 43 l-38 40
26 12 c27 13 340 11 361 -2z m-500 -287 c0 -16 -4 -28 -9 -28 -5 0 -11 -6 -14
-12 -2 -7 -3 -4 -1 7 2 11 4 36 4 55 0 26 3 31 10 20 5 -8 10 -27 10 -42z m0
-74 c0 -8 -5 -12 -10 -9 -6 4 -8 11 -5 16 9 14 15 11 15 -7z"/>
<path d="M1307 4382 c-12 -2 -17 -11 -15 -25 4 -27 45 -36 54 -12 8 21 -15 43
-39 37z"/>
<path d="M6871 4364 c0 -11 3 -14 6 -6 3 7 2 16 -1 19 -3 4 -6 -2 -5 -13z"/>
<path d="M4496 4357 c3 -10 9 -15 12 -12 3 3 0 11 -7 18 -10 9 -11 8 -5 -6z"/>
<path d="M7348 4310 c13 -6 28 -8 33 -4 5 3 9 0 10 -5 4 -41 1 -61 -9 -74 -10
-12 -9 -16 3 -21 25 -9 38 38 21 77 -11 27 -19 33 -47 34 -31 2 -32 1 -11 -7z"/>
<path d="M7290 4284 c-10 -25 -4 -70 10 -79 4 -2 8 16 9 42 0 25 4 49 7 54 3
5 0 9 -6 9 -6 0 -15 -12 -20 -26z"/>
<path d="M9643 4294 c-7 -7 -10 -21 -7 -31 5 -14 4 -15 -4 -4 -8 11 -18 2 -48
-44 -68 -107 -82 -207 -41 -286 47 -89 136 -114 227 -63 25 14 37 23 27 20
-12 -4 -17 -2 -14 6 2 7 10 12 16 10 32 -7 143 73 161 117 12 31 27 34 56 11
16 -14 17 -13 11 10 -4 14 -7 34 -7 45 0 14 -3 16 -8 8 -5 -8 -8 2 -8 23 0 19
-5 38 -10 42 -6 4 -14 16 -18 27 -6 16 -9 17 -17 5 -8 -12 -9 -11 -5 5 4 14
-6 33 -34 65 l-40 45 -30 -35 c-19 -22 -28 -41 -25 -55 3 -11 2 -14 -1 -7 -4
9 -14 3 -32 -18 l-27 -30 -45 70 c-49 76 -59 84 -77 64z m177 -108 c0 -2 -7
-9 -15 -16 -13 -11 -14 -10 -9 4 5 14 24 23 24 12z m-162 -231 c88 -43 104
-67 56 -85 -51 -20 -114 14 -140 77 -16 36 -18 56 -6 51 4 -1 45 -21 90 -43z
m202 15 c-8 -5 -11 -12 -7 -16 3 -4 15 -1 24 7 15 11 15 10 -1 -9 -24 -28 -34
-28 -31 1 3 28 3 27 18 27 8 0 7 -3 -3 -10z"/>
<path d="M6882 4220 c0 -14 2 -19 5 -12 2 6 2 18 0 25 -3 6 -5 1 -5 -13z"/>
<path d="M6892 4150 c0 -19 2 -27 5 -17 2 9 2 25 0 35 -3 9 -5 1 -5 -18z"/>
<path d="M4083 4131 c-79 -8 -134 -37 -187 -98 l-29 -33 -243 0 c-225 0 -244
1 -245 18 0 13 -2 13 -9 -4 -5 -12 -16 -105 -25 -205 l-16 -184 -32 -25 c-149
-115 -440 -441 -421 -472 4 -6 3 -8 -3 -5 -13 8 -34 -16 -135 -158 -229 -325
-388 -583 -557 -909 -238 -457 -292 -625 -271 -848 10 -108 44 -213 74 -233
15 -10 35 -13 57 -9 26 4 30 3 19 -5 -8 -6 -26 -11 -39 -11 -13 0 -22 -3 -18
-6 9 -9 88 7 81 17 -3 5 52 9 132 9 76 0 135 -2 133 -5 -3 -2 -51 -5 -107 -6
-56 -1 -102 -4 -102 -8 0 -4 174 -7 388 -7 355 0 366 0 128 5 l-260 6 -42 62
c-72 105 -88 159 -88 298 0 127 5 195 15 190 3 -2 17 22 32 53 35 76 98 138
177 176 56 27 78 31 165 35 61 2 140 -3 205 -14 84 -13 160 -16 385 -13 257 4
286 6 355 27 94 28 320 39 462 22 254 -30 512 -118 637 -218 170 -135 260
-310 261 -504 0 -82 -14 -109 -57 -109 -58 0 -72 24 -107 178 -29 131 -70 220
-130 285 -60 66 -76 59 -21 -8 57 -71 90 -135 115 -227 45 -166 45 -242 0
-265 -22 -11 -22 -13 -7 -19 19 -7 243 -1 251 7 2 2 7 21 11 42 7 33 5 37 -14
37 -25 0 -28 15 -5 24 19 7 404 8 404 1 0 -3 -5 -13 -11 -23 -8 -13 -7 -27 5
-55 l15 -38 495 1 c272 1 497 4 500 7 3 3 -4 23 -14 43 -20 38 -20 38 -90 42
-60 2 -73 0 -83 -15 -8 -12 -29 -21 -59 -24 -44 -5 -47 -4 -53 20 -15 57 58
286 117 370 11 16 17 31 14 34 -20 20 -126 -138 -126 -188 0 -26 -3 -30 -10
-19 -7 11 -9 4 -7 -25 1 -25 -2 -40 -10 -40 -18 0 -21 -7 -32 -74 -11 -69 -35
-105 -78 -116 -40 -10 -53 10 -53 79 0 113 58 284 122 362 44 53 40 79 -4 37
-57 -53 -114 -198 -148 -376 -14 -70 -37 -97 -84 -97 -44 0 -51 12 -49 85 4
125 58 281 130 373 50 64 40 83 -13 27 -65 -70 -106 -177 -145 -383 -14 -72
-41 -102 -94 -102 -31 0 -34 3 -40 39 -11 65 38 268 87 366 12 22 39 61 61 87
50 60 41 75 -14 22 -54 -52 -104 -157 -135 -284 -32 -133 -47 -163 -89 -186
-34 -18 -34 -18 -60 6 -22 21 -25 32 -25 89 0 36 7 95 15 130 9 36 13 72 10
80 -3 9 -3 12 1 8 4 -4 19 19 33 50 31 70 77 136 125 182 19 19 32 39 29 44
-3 6 -2 7 4 4 5 -3 31 12 57 33 84 69 204 117 433 171 129 31 150 33 318 33
165 0 188 -2 278 -27 95 -26 104 -27 376 -27 218 0 296 4 357 16 55 12 112 15
194 12 103 -4 120 -7 168 -33 102 -55 176 -153 213 -280 19 -67 17 -214 -5
-289 -17 -57 -69 -161 -87 -172 -15 -9 -10 -24 9 -25 9 -1 -3 -5 -28 -10 -25
-4 -145 -8 -267 -8 -123 -1 -223 -4 -223 -8 0 -5 127 -6 282 -3 156 3 303 3
328 0 25 -3 100 -4 167 -2 l122 3 22 35 c11 19 18 41 15 50 -3 8 -2 13 3 10
30 -19 48 275 22 369 -31 113 -61 203 -88 263 -23 50 -31 60 -42 50 -10 -11
-11 -8 -6 12 4 18 -5 49 -32 105 -35 73 -132 257 -175 330 -10 17 -34 59 -53
95 -39 73 -146 247 -239 390 -82 125 -91 139 -286 416 -119 170 -292 364 -443
499 l-78 70 -17 184 -17 183 -250 -1 -250 -1 -26 37 c-14 22 -49 51 -80 68
l-54 29 -267 1 c-148 0 -268 -4 -268 -9 0 -4 17 -42 37 -84 37 -74 38 -79 38
-186 0 -136 -25 -223 -95 -330 -117 -178 -286 -272 -509 -283 -322 -17 -571
137 -677 417 -25 67 -28 88 -28 200 -1 112 1 130 23 175 13 28 31 58 39 67 7
9 11 21 8 26 -6 10 -370 13 -473 3z m204 -117 c-3 -3 -12 -4 -19 -1 -8 3 -5 6
6 6 11 1 17 -2 13 -5z m2470 -1586 c-3 -7 -5 -2 -5 12 0 14 2 19 5 13 2 -7 2
-19 0 -25z m-3300 -20 c-3 -7 -5 -2 -5 12 0 14 2 19 5 13 2 -7 2 -19 0 -25z
m0 -155 c-2 -21 -4 -4 -4 37 0 41 2 58 4 38 2 -21 2 -55 0 -75z m3300 -75 c-2
-13 -4 -3 -4 22 0 25 2 35 4 23 2 -13 2 -33 0 -45z m-4452 -448 c-3 -5 -12
-10 -18 -10 -7 0 -6 4 3 10 19 12 23 12 15 0z m2440 -168 c-3 -3 -11 0 -18 7
-9 10 -8 11 6 5 10 -3 15 -9 12 -12z m-2656 -81 c-16 -54 -24 -46 -9 9 6 23
14 40 16 37 3 -3 0 -24 -7 -46z m6224 -518 c-13 -2 -35 -2 -50 0 -16 2 -5 4
22 4 28 0 40 -2 28 -4z"/>
<path d="M7926 4087 c3 -10 9 -15 12 -12 3 3 0 11 -7 18 -10 9 -11 8 -5 -6z"/>
<path d="M7480 4025 c7 -8 18 -15 24 -15 17 0 136 -101 136 -116 0 -7 9 -22
21 -33 17 -16 20 -29 18 -82 -2 -35 1 -75 5 -88 6 -16 5 -21 -3 -17 -6 4 -11
14 -11 23 0 19 -10 12 -14 -9 -1 -7 -5 -19 -9 -25 -5 -9 -2 -13 8 -13 9 0 13
5 9 11 -4 7 -1 10 7 7 8 -3 22 1 32 10 10 9 39 16 70 17 28 1 78 10 109 19
l57 18 65 -36 c36 -20 67 -40 70 -45 9 -14 -24 -51 -47 -52 -16 -1 -13 -4 12
-12 33 -10 36 -9 69 29 59 69 59 69 -16 97 -37 14 -87 33 -112 43 -49 19 -147
13 -134 -8 4 -7 2 -8 -5 -4 -6 4 -34 2 -61 -5 -27 -7 -52 -11 -54 -8 -3 3 -9
29 -14 59 -5 30 -13 63 -17 74 -8 17 -3 18 89 11 70 -5 96 -4 96 4 0 21 -32
60 -65 81 -63 39 -221 80 -308 80 -34 0 -38 -2 -27 -15z m225 -315 c3 -5 1
-10 -4 -10 -6 0 -11 5 -11 10 0 6 2 10 4 10 3 0 8 -4 11 -10z m92 4 c-3 -3
-12 -4 -19 -1 -8 3 -5 6 6 6 11 1 17 -2 13 -5z"/>
<path d="M9991 4020 c1 -8 -1 -24 -5 -35 -36 -98 -74 -130 -143 -120 -28 4
-43 2 -43 -4 0 -12 1 -12 84 -13 53 0 62 4 90 32 20 21 27 34 19 37 -7 3 -13
9 -13 14 0 4 7 6 15 3 10 -4 15 0 15 14 0 11 2 26 5 34 3 7 -2 22 -10 33 -11
14 -15 16 -14 5z m12 -40 c-3 -12 -8 -19 -11 -16 -5 6 5 36 12 36 2 0 2 -9 -1
-20z"/>
<path d="M2325 3835 l-25 -24 20 -51 c11 -28 20 -54 20 -58 0 -3 -19 15 -43
42 -40 46 -45 48 -72 39 -52 -17 -95 -101 -95 -185 0 -36 0 -37 55 -49 58 -13
71 -35 19 -32 -16 1 -40 -1 -53 -3 -21 -5 -23 -9 -19 -49 3 -24 17 -64 32 -89
43 -73 95 -73 145 0 30 44 38 37 17 -16 -32 -80 -20 -101 60 -115 45 -7 124 9
136 29 10 14 0 61 -18 99 -21 40 -2 33 32 -13 39 -52 80 -55 120 -7 57 68 72
159 27 165 -16 2 -23 -2 -23 -12 0 -9 -2 -16 -5 -16 -12 0 -65 31 -65 38 0 4
28 14 63 22 l62 15 -3 45 c-3 59 -50 151 -85 168 -37 18 -63 8 -98 -40 -21
-29 -29 -36 -29 -22 1 10 7 30 15 44 37 65 0 100 -105 100 -51 0 -65 -4 -85
-25z m151 -59 c3 -8 0 -25 -7 -38 -33 -64 -99 -47 -99 26 0 24 3 26 50 26 35
0 52 -5 56 -14z m-242 -178 c14 -23 3 -32 -29 -24 -33 8 -36 49 -4 44 12 -2
27 -11 33 -20z m424 5 c-2 -10 -13 -19 -26 -21 -24 -4 -29 7 -10 26 18 18 40
15 36 -5z m-214 -19 c30 -30 13 -74 -29 -74 -46 0 -60 48 -23 74 28 20 33 20
52 0z m0 -211 c16 -15 26 -35 24 -47 -3 -18 -10 -21 -48 -21 -43 0 -45 1 -48
31 -3 29 17 64 37 64 5 0 20 -12 35 -27z"/>
<path d="M9885 3673 l-17 -28 23 22 c12 12 20 25 17 28 -3 3 -13 -7 -23 -22z"/>
<path d="M2953 3659 c-10 -25 -9 -29 1 -20 8 6 21 9 29 5 14 -5 14 -2 4 20
-15 33 -20 33 -34 -5z"/>
<path d="M448 3673 c12 -2 32 -2 45 0 12 2 2 4 -23 4 -25 0 -35 -2 -22 -4z"/>
<path d="M538 3673 c7 -3 16 -2 19 1 4 3 -2 6 -13 5 -11 0 -14 -3 -6 -6z"/>
<path d="M1018 3673 c7 -3 16 -2 19 1 4 3 -2 6 -13 5 -11 0 -14 -3 -6 -6z"/>
<path d="M8268 3632 c-27 -15 -48 -30 -48 -34 0 -12 73 -58 92 -58 15 0 18 9
18 60 0 33 -3 60 -7 60 -5 0 -29 -13 -55 -28z"/>
<path d="M9160 3605 c0 -38 4 -55 13 -55 13 0 87 47 87 55 0 7 -78 55 -90 55
-5 0 -10 -24 -10 -55z"/>
<path d="M9926 3647 c3 -10 9 -15 12 -12 3 3 0 11 -7 18 -10 9 -11 8 -5 -6z"/>
<path d="M8383 3583 l2 -43 360 1 c198 1 349 5 335 9 -23 7 -23 8 9 9 30 1 33
3 29 26 -3 14 -1 25 6 25 6 0 5 4 -3 9 -8 5 -177 9 -377 9 l-363 -1 2 -44z
m257 13 c32 10 195 11 172 2 -12 -5 -8 -7 13 -7 23 -1 27 -4 15 -11 -11 -7 5
-10 52 -10 39 0 70 -5 74 -12 9 -15 -145 -2 -164 14 -7 6 -62 11 -131 12 -87
1 -117 4 -114 13 3 9 12 9 31 2 14 -6 38 -7 52 -3z m319 -12 c9 -8 -75 -3 -88
5 -8 5 5 7 35 4 27 -3 51 -7 53 -9z m-204 -14 c43 -6 35 -7 -50 -8 -64 0 -93
2 -80 8 25 11 64 11 130 0z m268 -17 c-7 -2 -21 -2 -30 0 -10 3 -4 5 12 5 17
0 24 -2 18 -5z"/>
<path d="M9296 3614 c-9 -23 -8 -24 19 -24 28 0 34 24 9 34 -21 8 -21 8 -28
-10z"/>
<path d="M9958 3613 c10 -4 9 -8 -5 -18 -16 -12 -15 -13 10 -8 22 4 25 8 16
19 -6 8 -17 14 -23 13 -6 0 -6 -3 2 -6z"/>
<path d="M9815 3590 c3 -5 11 -10 16 -10 6 0 7 5 4 10 -3 6 -11 10 -16 10 -6
0 -7 -4 -4 -10z"/>
<path d="M8023 3453 c9 -2 25 -2 35 0 9 3 1 5 -18 5 -19 0 -27 -2 -17 -5z"/>
<path d="M8098 3453 c7 -3 16 -2 19 1 4 3 -2 6 -13 5 -11 0 -14 -3 -6 -6z"/>
<path d="M7880 3419 l-25 -20 35 17 c43 20 47 24 29 24 -8 0 -25 -10 -39 -21z"/>
<path d="M1094 3120 c0 -157 2 -221 3 -142 2 78 2 206 0 285 -1 78 -3 14 -3
-143z"/>
<path d="M7805 3370 c-3 -6 1 -7 9 -4 18 7 21 14 7 14 -6 0 -13 -4 -16 -10z"/>
<path d="M8546 3372 c-3 -3 -6 -10 -6 -16 0 -6 5 -4 10 4 5 8 10 10 10 5 0 -6
9 -11 19 -11 11 0 18 3 15 7 -5 9 -42 18 -48 11z"/>
<path d="M8286 3347 c3 -10 9 -15 12 -12 3 3 0 11 -7 18 -10 9 -11 8 -5 -6z"/>
<path d="M8513 3334 c-3 -8 -2 -19 3 -24 5 -5 10 1 10 16 2 27 -4 31 -13 8z"/>
<path d="M8850 3317 l-55 -22 3 -75 c2 -41 9 -80 15 -86 7 -7 33 -14 59 -17
l47 -4 3 113 c2 72 -1 114 -7 114 -5 0 -35 -11 -65 -23z"/>
<path d="M8960 3336 c0 -2 11 -6 25 -8 13 -3 22 -1 19 3 -5 9 -44 13 -44 5z"/>
<path d="M9030 3332 c0 -4 75 -8 166 -9 92 -1 164 0 161 3 -8 8 -327 14 -327
6z"/>
<path d="M9938 3333 c7 -3 16 -2 19 1 4 3 -2 6 -13 5 -11 0 -14 -3 -6 -6z"/>
<path d="M10017 3306 c4 -13 3 -17 -5 -12 -7 4 -12 3 -12 -2 0 -6 7 -13 16
-16 8 -3 12 -2 9 4 -3 6 -2 10 3 10 11 0 21 -56 14 -82 -2 -10 -9 -18 -14 -18
-5 0 -6 5 -2 12 5 7 3 8 -5 3 -9 -5 -10 -10 -2 -18 16 -16 14 -30 -3 -24 -10
4 -13 1 -9 -9 10 -28 45 19 50 68 4 38 1 49 -21 74 -18 20 -24 23 -19 10z"/>
<path d="M7740 3295 c-7 -9 -8 -15 -2 -15 5 0 12 7 16 15 3 8 4 15 2 15 -2 0
-9 -7 -16 -15z"/>
<path d="M8977 3293 c-4 -3 -7 -35 -7 -70 l0 -63 465 0 465 0 0 39 c0 21 3 53
6 70 l7 31 -465 0 c-256 0 -468 -3 -471 -7z"/>
<path d="M578 3273 c12 -2 32 -2 45 0 12 2 2 4 -23 4 -25 0 -35 -2 -22 -4z"/>
<path d="M8372 3175 c0 -16 2 -22 5 -12 2 9 2 23 0 30 -3 6 -5 -1 -5 -18z"/>
<path d="M2494 3132 c-22 -14 -37 -53 -25 -65 8 -8 11 -6 11 9 0 28 37 57 66
51 13 -2 21 0 18 4 -6 11 -55 11 -70 1z"/>
<path d="M8079 3009 c-19 -16 -20 -18 -4 -10 34 17 51 31 39 31 -7 0 -22 -9
-35 -21z"/>
<path d="M2063 2993 c15 -2 37 -2 50 0 12 2 0 4 -28 4 -27 0 -38 -2 -22 -4z"/>
<path d="M9181 2957 c-12 -27 -21 -51 -21 -53 0 -2 16 -4 36 -4 35 0 35 1 28
33 -16 73 -20 76 -43 24z"/>
<path d="M1788 2983 c7 -3 16 -2 19 1 4 3 -2 6 -13 5 -11 0 -14 -3 -6 -6z"/>
<path d="M2198 2983 c6 -2 18 -2 25 0 6 3 1 5 -13 5 -14 0 -19 -2 -12 -5z"/>
<path d="M1408 2973 c7 -3 16 -2 19 1 4 3 -2 6 -13 5 -11 0 -14 -3 -6 -6z"/>
<path d="M9810 2951 c0 -10 -7 -24 -15 -31 -8 -7 -15 -16 -15 -21 0 -4 11 2
23 15 23 23 32 56 15 56 -4 0 -8 -8 -8 -19z"/>
<path d="M8696 2947 c-24 -18 -25 -76 -1 -93 26 -20 52 -17 75 6 52 52 -14
131 -74 87z"/>
<path d="M1343 2938 c-23 -30 -24 -41 -2 -21 12 12 20 25 17 28 -3 3 -10 0
-15 -7z"/>
<path d="M9846 2894 c-3 -9 -4 -19 -1 -22 3 -3 5 1 5 9 1 8 7 3 14 -10 9 -17
15 -20 21 -11 4 7 -1 20 -12 32 -19 18 -21 18 -27 2z"/>
<path d="M9456 2863 c-30 -44 -33 -63 -8 -63 9 0 26 -3 38 -6 19 -5 20 -3 14
45 -3 28 -9 53 -12 57 -4 3 -18 -12 -32 -33z"/>
<path d="M9810 2800 c0 -5 5 -10 11 -10 5 0 7 5 4 10 -3 6 -8 10 -11 10 -2 0
-4 -4 -4 -10z"/>
<path d="M1502 2788 c-7 -7 -12 -17 -12 -22 0 -6 6 -4 13 5 7 9 19 18 27 22
13 5 13 6 0 6 -9 1 -21 -4 -28 -11z"/>
<path d="M1830 2781 c0 -6 4 -13 10 -16 6 -3 7 1 4 9 -7 18 -14 21 -14 7z"/>
<path d="M1862 2760 c0 -14 2 -19 5 -12 2 6 2 18 0 25 -3 6 -5 1 -5 -13z"/>
<path d="M9173 2727 c-6 -125 -36 -532 -40 -537 -2 -2 -27 -4 -56 -5 -51 0
-52 1 -54 30 -2 17 -7 53 -13 80 -5 28 -12 68 -15 90 -22 167 -31 216 -38 217
-4 0 -34 -5 -67 -12 -70 -15 -66 8 -46 -230 7 -85 11 -158 9 -162 -10 -20 -23
-3 -48 62 -16 42 -31 67 -37 63 -6 -3 -8 -1 -4 5 3 6 0 26 -8 44 -8 18 -29 70
-46 116 -18 45 -36 82 -41 82 -5 0 -36 -14 -68 -31 -59 -31 -60 -32 -47 -58 7
-14 21 -50 30 -79 10 -28 22 -50 27 -47 5 4 6 0 3 -8 -3 -8 5 -45 17 -83 12
-38 23 -71 23 -74 1 -3 -11 -5 -26 -6 -20 -1 -25 3 -21 15 4 13 2 13 -10 -1
-10 -13 -29 -18 -67 -18 -46 0 -51 -2 -45 -17 4 -10 11 -54 16 -98 17 -160 90
-1059 89 -1094 -2 -59 22 -344 31 -369 l9 -22 597 2 597 3 3 35 c1 19 7 85 13
145 5 61 12 157 15 215 3 58 19 290 36 515 31 433 46 663 47 706 0 15 12 57
27 94 14 37 25 68 23 69 -32 23 -79 45 -103 48 -29 3 -32 -1 -85 -107 -30 -60
-59 -113 -65 -117 -5 -4 -74 -8 -152 -7 -166 0 -152 -14 -124 134 11 55 27
152 36 215 9 63 18 122 21 131 4 16 -30 30 -86 35 -8 1 -26 6 -40 12 -14 5
-28 7 -32 3 -10 -10 -78 -323 -89 -414 -6 -45 -14 -89 -19 -97 -4 -9 -24 -16
-49 -18 l-41 -3 0 38 c0 21 4 90 9 153 17 203 24 410 15 410 -5 0 -10 -24 -11
-53z m-185 -362 c1 -25 -2 -45 -8 -45 -11 0 -14 73 -3 83 3 4 7 7 7 7 1 0 2
-20 4 -45z m903 -8 c-13 -13 -15 1 -4 30 7 17 8 17 11 -1 2 -10 -1 -23 -7 -29z
m-904 -94 c-3 -10 -5 -4 -5 12 0 17 2 24 5 18 2 -7 2 -21 0 -30z m843 -59
c-18 -21 -24 -10 -9 18 8 14 14 18 17 10 2 -7 -2 -19 -8 -28z m-840 -7 c9 -3
4 -6 -12 -6 -23 -1 -28 3 -28 22 1 19 2 20 13 6 7 -9 19 -18 27 -22z m-273 -3
c-3 -3 -12 -4 -19 -1 -8 3 -5 6 6 6 11 1 17 -2 13 -5z"/>
<path d="M8845 2737 c-3 -9 -7 -24 -10 -32 -3 -10 3 -15 20 -15 34 0 41 18 17
43 -19 19 -22 19 -27 4z"/>
<path d="M9783 2703 c-29 -39 -29 -49 -1 -56 29 -8 30 -7 26 44 l-3 44 -22
-32z"/>
<path d="M8494 2670 c9 -58 17 -65 47 -41 13 10 22 21 19 23 -3 1 -20 17 -39
33 l-34 30 7 -45z"/>
<path d="M1774 2656 c11 -9 24 -16 30 -16 12 0 7 5 -24 19 -24 11 -24 11 -6
-3z"/>
<path d="M9972 2546 l-31 -34 24 -16 c38 -25 45 -20 45 34 0 28 -2 50 -3 50
-2 0 -18 -15 -35 -34z"/>
<path d="M1172 2513 c-19 -63 -16 -73 19 -73 29 0 31 2 25 26 -4 15 -13 40
-19 57 l-13 30 -12 -40z"/>
<path d="M9728 2543 c7 -3 16 -2 19 1 4 3 -2 6 -13 5 -11 0 -14 -3 -6 -6z"/>
<path d="M9654 2504 c-8 -20 -13 -39 -10 -42 3 -3 6 -3 6 0 0 3 7 22 15 42 8
20 13 36 10 36 -3 0 -13 -16 -21 -36z"/>
<path d="M9770 2530 c0 -6 5 -10 11 -10 5 0 8 -4 4 -9 -3 -5 -1 -12 5 -16 5
-3 10 3 10 13 0 11 -7 22 -15 26 -8 3 -15 1 -15 -4z"/>
<path d="M8450 2441 c0 -6 4 -13 10 -16 6 -3 7 1 4 9 -7 18 -14 21 -14 7z"/>
<path d="M840 2386 c0 -19 -3 -41 -6 -50 -5 -13 1 -16 30 -16 20 0 36 2 36 5
0 14 -43 95 -51 95 -5 0 -9 -15 -9 -34z"/>
<path d="M1572 2371 l-33 -41 33 -13 c33 -13 33 -13 36 15 2 16 2 40 0 54 -3
26 -3 26 -36 -15z"/>
<path d="M580 2313 c0 -58 11 -68 50 -48 l32 17 -23 25 c-13 14 -32 29 -41 34
-16 8 -18 5 -18 -28z"/>
<path d="M1020 2302 c0 -21 14 -157 30 -302 17 -145 30 -285 30 -311 0 -53
-14 -72 -26 -37 -9 28 -3 -5 -59 292 -25 136 -49 255 -52 263 -5 12 -16 14
-51 9 -25 -3 -51 -6 -58 -6 -17 0 -19 -68 -4 -119 13 -45 2 -33 -40 47 -40 76
-66 90 -93 48 -10 -14 -35 -30 -57 -37 -22 -7 -40 -17 -40 -22 0 -13 73 -294
111 -423 16 -56 29 -104 29 -107 0 -2 -22 -7 -50 -11 -30 -4 -60 -16 -77 -30
-26 -23 -27 -26 -25 -126 2 -122 13 -147 71 -156 l39 -6 24 -152 c14 -83 23
-154 21 -159 -2 -4 -97 -7 -210 -7 -114 0 -204 -2 -202 -5 3 -2 96 -5 207 -5
111 -1 204 -6 207 -11 4 -5 0 -9 -7 -9 -9 0 -10 -2 -2 -8 7 -4 19 -52 28 -107
26 -159 38 -214 50 -224 13 -10 463 -21 599 -13 95 5 99 6 109 31 5 14 12 37
14 51 2 14 11 70 20 125 8 55 15 114 15 130 -1 24 1 27 10 15 8 -12 9 -8 5 15
-3 17 4 99 16 183 19 129 25 152 40 152 30 0 65 21 77 47 18 38 14 199 -5 228
-18 28 -69 45 -136 45 -26 0 -50 5 -54 12 -5 7 -3 8 6 3 10 -6 12 -4 7 9 -5
11 -3 15 5 10 8 -5 9 -2 5 10 -4 9 -3 15 1 12 5 -3 24 32 42 77 18 45 46 110
61 144 36 79 59 134 59 140 0 3 -7 3 -15 -1 -8 -3 -15 -3 -15 0 0 2 11 9 25
14 14 5 25 13 25 17 -1 9 -103 63 -119 63 -12 0 -77 -120 -97 -180 -9 -25 -29
-72 -45 -106 -16 -33 -29 -71 -30 -85 l0 -24 -12 23 c-7 16 -8 26 0 30 6 4 12
21 15 37 3 17 9 38 13 48 4 10 3 17 -4 17 -6 0 -13 -11 -17 -24 -3 -14 -14
-32 -25 -42 -15 -14 -21 -14 -34 -4 -8 7 -16 9 -16 4 -1 -5 -3 -22 -5 -38 -1
-15 -6 -31 -10 -35 -10 -9 13 134 35 224 6 22 10 49 10 60 -1 20 -32 -90 -50
-173 -5 -24 -16 -67 -24 -95 -8 -28 -15 -73 -15 -100 0 -41 -3 -48 -17 -45
-25 4 -28 47 -9 127 8 36 17 89 20 116 3 28 7 57 8 65 6 31 -17 19 -23 -12 -4
-18 -7 -28 -9 -23 -5 24 -18 -46 -19 -105 -1 -46 -4 -61 -11 -50 -12 19 -11
540 1 540 5 0 9 12 9 28 0 21 -2 24 -10 12 -6 -9 -10 -10 -10 -3 0 6 5 15 10
18 21 13 -3 25 -52 25 l-50 0 6 -182 c4 -113 3 -188 -3 -197 -12 -19 -23 20
-57 214 -14 83 -30 156 -36 163 -18 22 -28 13 -28 -26z m364 -676 c-6 -24 -3
-25 48 -29 47 -3 45 -4 -19 -5 -68 -2 -73 0 -73 19 0 11 4 18 9 15 5 -3 11 1
15 9 9 25 27 17 20 -9z m-356 -30 c12 -3 12 -4 -3 -3 -11 1 -20 9 -21 17 0 8
1 10 3 3 2 -6 12 -14 21 -17z"/>
<path d="M1300 2268 c-11 -18 -20 -44 -19 -58 l0 -25 11 25 c6 14 12 30 13 35
0 6 6 9 13 8 7 -2 12 8 12 22 0 33 -6 32 -30 -7z"/>
<path d="M1723 2240 c-36 -45 -36 -54 -3 -67 l30 -11 0 54 c0 30 -1 54 -2 53
-2 0 -13 -13 -25 -29z"/>
<path d="M1490 2216 c0 -2 7 -7 16 -10 8 -3 12 -2 9 4 -6 10 -25 14 -25 6z"/>
<path d="M1526 2194 c-5 -14 -4 -15 9 -4 17 14 19 20 6 20 -5 0 -12 -7 -15
-16z"/>
<path d="M1575 2180 c11 -5 14 -9 6 -9 -7 -1 -11 -7 -7 -16 3 -8 1 -27 -5 -41
-15 -41 -1 -42 16 -1 22 53 20 77 -7 76 -22 0 -22 -1 -3 -9z"/>
<path d="M1521 2124 c0 -11 3 -14 6 -6 3 7 2 16 -1 19 -3 4 -6 -2 -5 -13z"/>
<path d="M1309 2104 c0 -10 -3 -51 -7 -91 -4 -39 -5 -70 -1 -67 9 5 23 163 15
171 -3 4 -6 -2 -7 -13z"/>
<path d="M1258 2054 c-3 -27 -1 -53 3 -57 9 -11 17 81 8 95 -4 6 -9 -11 -11
-38z"/>
<path d="M1540 2061 c0 -5 -3 -18 -6 -28 -6 -16 -5 -16 9 2 19 23 21 35 7 35
-5 0 -10 -4 -10 -9z"/>
<path d="M1440 1895 c0 -14 2 -25 4 -25 2 0 6 11 8 25 3 14 1 25 -3 25 -5 0
-9 -11 -9 -25z"/>
<path d="M1480 1909 c0 -5 5 -7 10 -4 6 3 10 8 10 11 0 2 -4 4 -10 4 -5 0 -10
-5 -10 -11z"/>
<path d="M1460 1880 c0 -5 5 -10 10 -10 6 0 10 5 10 10 0 6 -4 10 -10 10 -5 0
-10 -4 -10 -10z"/>
<path d="M4470 1443 c0 -7 22 -43 49 -80 60 -83 101 -202 108 -319 6 -92 -4
-124 -42 -124 -61 0 -77 26 -109 187 -13 65 -35 141 -49 168 -36 71 -85 135
-102 135 -11 0 -4 -16 24 -52 21 -29 46 -67 55 -85 30 -60 59 -187 60 -266 1
-67 -2 -81 -18 -93 -18 -12 -2 -14 127 -14 81 0 147 3 147 8 0 4 -9 13 -20 19
-22 14 -32 45 -60 197 -12 60 -33 136 -49 170 -27 59 -120 174 -121 149z"/>
<path d="M4156 1353 c66 -100 100 -195 110 -307 8 -86 3 -96 -50 -96 -18 0
-40 10 -56 25 -23 22 -32 24 -72 19 -42 -6 -47 -10 -61 -45 -8 -21 -12 -40 -9
-43 3 -3 90 -6 193 -6 l187 0 -28 29 c-16 16 -31 39 -34 52 -2 13 -12 62 -20
109 -20 103 -50 168 -112 238 -49 55 -78 70 -48 25z"/>
<path d="M3965 1250 c-21 -16 -43 -30 -50 -30 -6 0 -56 -22 -111 -48 -54 -27
-112 -52 -129 -57 -16 -4 -131 -8 -255 -9 -259 -2 -261 -3 -331 -88 -23 -29
-48 -57 -54 -63 -6 -5 -39 -45 -74 -87 -35 -43 -68 -75 -74 -71 -6 3 -7 1 -3
-6 4 -6 -9 -33 -30 -62 -45 -61 -55 -128 -30 -198 8 -25 12 -49 9 -54 -3 -6
-1 -7 5 -3 6 3 22 -5 35 -18 13 -13 42 -29 63 -35 28 -8 686 -11 2254 -10
2423 2 2269 1 2267 11 -1 3 14 17 33 30 68 45 99 154 66 231 -7 18 -31 52 -53
77 -21 25 -56 67 -76 94 -35 47 -36 50 -22 73 9 12 11 23 6 23 -5 0 -11 -7
-15 -15 -3 -8 -10 -15 -15 -15 -6 0 -7 7 -4 17 4 10 2 14 -4 10 -6 -4 -29 12
-50 35 -90 100 -110 115 -156 122 -25 4 -146 6 -269 5 -204 -1 -228 1 -282 20
-69 25 -172 81 -216 117 -37 32 -50 24 -75 -44 -10 -26 -33 -77 -52 -114 l-33
-68 422 0 c496 0 450 11 574 -135 80 -94 102 -130 90 -143 -8 -8 -4195 -20
-4241 -12 -18 3 -31 12 -33 23 -4 21 85 140 158 212 l51 50 434 3 c239 1 435
5 435 8 0 11 -53 109 -61 112 -5 2 -7 7 -4 12 5 9 -23 99 -38 118 -14 17 -20
16 -62 -18z"/>
<path d="M5088 992 c-9 -2 -22 -21 -31 -43 -14 -36 -14 -41 -1 -46 18 -7 282
2 290 10 3 3 2 21 -1 40 l-7 36 -118 3 c-65 2 -124 2 -132 0z"/>
<path d="M3242 953 l-36 -38 75 -6 c134 -11 244 -10 261 4 18 14 48 58 48 69
0 5 -70 8 -156 8 l-157 0 -35 -37z"/>
<path d="M3611 951 c-26 -32 -28 -40 -15 -45 21 -8 303 -8 343 0 24 5 37 16
52 45 l19 39 -184 0 -184 0 -31 -39z"/>
<path d="M6420 978 c0 -7 8 -27 19 -44 18 -30 19 -30 115 -32 53 -1 96 0 96 3
0 3 -9 24 -20 45 l-20 40 -95 0 c-69 0 -95 -3 -95 -12z"/>
<path d="M6679 952 l20 -39 77 -6 c98 -9 268 -9 327 -1 50 7 51 15 7 62 -20
21 -26 22 -236 22 l-214 0 19 -38z"/>
<path d="M77 943 c46 -2 120 -2 166 0 45 1 8 3 -83 3 -91 0 -128 -2 -83 -3z"/>
<path d="M1688 943 c28 -2 76 -2 105 0 28 2 5 3 -53 3 -58 0 -81 -1 -52 -3z"/>
<path d="M8385 940 c-14 -7 -8 -8 20 -3 22 3 42 7 44 9 9 8 -45 2 -64 -6z"/>
<path d="M9880 943 c0 -5 81 -8 180 -8 99 0 180 3 180 8 0 4 -81 7 -180 7 -99
0 -180 -3 -180 -7z"/>
<path d="M2040 900 c-99 -20 -198 -90 -292 -208 -27 -34 -54 -60 -59 -57 -5 4
-6 0 -3 -8 3 -8 -4 -32 -15 -53 -40 -73 -20 -190 34 -206 17 -5 39 -13 50 -18
22 -9 160 -30 201 -30 19 0 63 36 174 144 150 145 239 212 318 242 23 9 42 20
42 24 0 17 -48 76 -79 97 -34 23 -119 58 -168 69 -49 11 -157 13 -203 4z"/>
<path d="M3163 858 c-26 -30 -53 -70 -53 -80 0 -5 67 -8 150 -8 l150 0 30 42
c49 68 48 68 -113 68 -136 0 -145 -1 -164 -22z"/>
<path d="M3493 832 c-18 -26 -33 -51 -33 -55 0 -4 57 -6 127 -5 l127 3 23 40
c37 65 37 65 -94 65 l-118 0 -32 -48z"/>
<path d="M3798 857 c-14 -23 -38 -74 -38 -82 0 -3 72 -5 159 -5 l159 0 16 40
c27 68 32 66 -133 68 -144 1 -150 0 -163 -21z"/>
<path d="M4172 873 c-13 -5 -52 -74 -52 -93 0 -6 25 -10 58 -10 57 0 59 1 75
35 29 60 24 75 -25 74 -24 0 -49 -3 -56 -6z"/>
<path d="M4322 868 c-15 -20 -42 -76 -42 -88 0 -7 45 -10 141 -8 l142 3 13 45
c8 25 14 48 14 53 0 13 -257 8 -268 -5z"/>
<path d="M4635 873 c-10 -7 -35 -78 -35 -97 0 -3 59 -6 130 -6 l130 0 0 50 0
50 -49 0 c-26 0 -75 2 -107 6 -32 3 -64 1 -69 -3z"/>
<path d="M4906 863 c-3 -8 -6 -32 -6 -54 l0 -39 126 0 125 0 -3 53 -3 52 -117
2 c-95 1 -118 -1 -122 -14z"/>
<path d="M5190 825 l0 -55 119 0 118 0 -8 43 c-4 23 -8 47 -9 54 0 7 -35 11
-110 12 l-110 1 0 -55z"/>
<path d="M5482 872 c-33 -3 -34 -4 -27 -45 4 -23 9 -45 12 -49 2 -5 61 -8 130
-8 96 0 124 3 120 13 -3 6 -12 30 -21 53 l-17 41 -82 -1 c-45 -1 -97 -2 -115
-4z"/>
<path d="M5763 873 c-37 -5 -40 -16 -19 -68 l15 -35 155 0 c101 0 156 4 156
10 0 25 -42 90 -58 91 -173 5 -222 6 -249 2z"/>
<path d="M6080 865 c0 -8 7 -33 16 -55 16 -40 17 -40 70 -40 l54 0 -12 28
c-28 64 -47 82 -89 82 -28 0 -39 -4 -39 -15z"/>
<path d="M6220 871 c0 -5 9 -30 20 -55 l19 -46 201 0 201 0 -12 23 c-6 12 -22
36 -35 53 l-23 31 -185 2 c-108 0 -186 -3 -186 -8z"/>
<path d="M6650 869 c0 -4 12 -29 27 -54 l28 -45 107 0 107 0 -32 55 -32 55
-102 -1 c-57 -1 -103 -5 -103 -10z"/>
<path d="M6910 867 c0 -7 12 -32 27 -55 l27 -42 153 0 c84 0 153 3 153 8 0 4
-18 28 -41 55 l-41 47 -139 0 c-107 0 -139 -3 -139 -13z"/>
<path d="M2461 567 c-7 -19 -24 -45 -39 -59 -39 -35 -228 -157 -279 -180 -89
-39 -378 -17 -456 36 -17 12 -36 37 -42 56 l-12 35 -17 -33 c-31 -59 12 -109
119 -138 57 -15 357 -35 350 -23 -2 3 18 14 46 24 27 11 49 22 49 26 0 3 12
11 28 18 15 7 57 33 95 58 59 40 69 44 85 32 15 -13 16 -12 4 3 -12 14 -10 19
13 34 27 18 57 69 69 117 9 38 0 34 -13 -6z"/>
</g>
</svg>
